# Blender 5.1.0
# www.blender.org
mtllib P5-11.mtl
o RLW.002
v 0.122588 0.121805 0.050453
v 0.122588 0.093225 0.093225
v 0.122588 0.050453 0.121805
v 0.122588 -0.000000 0.131840
v 0.122588 -0.050453 0.121805
v 0.122588 -0.093226 0.093225
v 0.122588 -0.121805 0.050453
v 0.122588 -0.131841 -0.000000
v 0.122588 -0.121805 -0.050454
v 0.122588 -0.093226 -0.093226
v 0.122588 -0.050453 -0.121805
v 0.122588 -0.000000 -0.131841
v 0.122588 0.050453 -0.121805
v 0.122588 0.093225 -0.093226
v 0.122588 0.131841 -0.000000
v 0.122588 0.121805 -0.050454
v 0.123367 -0.101199 0.244314
v 0.123367 -0.186991 -0.186990
v 0.123367 0.101198 0.244314
v 0.123367 -0.000000 0.264444
v 0.123367 0.244315 -0.101199
v 0.123367 0.264444 -0.000000
v 0.123367 -0.264445 -0.000000
v 0.123367 -0.244315 -0.101199
v 0.123367 0.101198 -0.244315
v 0.123367 0.186990 -0.186990
v 0.123367 0.244315 0.101198
v 0.123367 0.186990 0.186990
v 0.123367 -0.186991 0.186990
v 0.123367 -0.244315 0.101198
v 0.123367 -0.101199 -0.244315
v 0.123367 -0.000000 -0.264445
v 0.081114 0.190148 0.078762
v 0.081114 0.145533 0.145533
v 0.081114 0.078762 0.190148
v 0.081114 -0.000000 0.205814
v 0.081114 -0.078762 0.190148
v 0.081114 -0.145533 0.145533
v 0.081114 -0.190148 0.078762
v 0.081114 -0.205815 -0.000000
v 0.081114 -0.190148 -0.078762
v 0.081114 -0.145533 -0.145533
v 0.081114 -0.078762 -0.190148
v 0.081114 -0.000000 -0.205815
v 0.081114 0.078762 -0.190148
v 0.081114 0.145533 -0.145533
v 0.081114 0.205815 -0.000000
v 0.081114 0.190148 -0.078762
v 0.107703 0.298481 0.123635
v -0.115680 0.298481 0.123635
v 0.107703 0.228448 0.228448
v -0.115680 0.228448 0.228448
v 0.107703 0.123635 0.298481
v -0.115680 0.123635 0.298481
v 0.107703 -0.000000 0.323074
v -0.115680 -0.000000 0.323074
v 0.107703 -0.123635 0.298481
v -0.115680 -0.123635 0.298481
v 0.107703 -0.228448 0.228448
v -0.115680 -0.228448 0.228448
v 0.107703 -0.298482 0.123635
v -0.115680 -0.298482 0.123635
v 0.107703 -0.323074 -0.000000
v -0.115680 -0.323074 -0.000000
v 0.107703 -0.298482 -0.123635
v -0.115680 -0.298482 -0.123635
v 0.107703 -0.228448 -0.228448
v -0.115680 -0.228448 -0.228448
v 0.107703 -0.123635 -0.298482
v -0.115680 -0.123635 -0.298482
v 0.107703 -0.000000 -0.323074
v -0.115680 -0.000000 -0.323074
v 0.107703 0.123635 -0.298482
v -0.115680 0.123635 -0.298482
v 0.107703 0.228448 -0.228448
v -0.115680 0.228448 -0.228448
v 0.107703 0.298481 -0.123635
v -0.115680 0.298481 -0.123635
v 0.107703 0.323074 -0.000000
v -0.115680 0.323074 -0.000000
v 0.122588 0.131841 -0.000000
v 0.122588 0.121805 0.050453
v 0.122588 0.093225 0.093225
v 0.122588 0.050453 0.121805
v 0.122588 -0.000000 0.131840
v 0.122588 -0.050453 0.121805
v 0.122588 -0.093226 0.093225
v 0.122588 -0.121805 0.050453
v 0.122588 -0.131841 -0.000000
v 0.122588 -0.121805 -0.050454
v 0.122588 -0.093226 -0.093226
v 0.122588 -0.050453 -0.121805
v 0.122588 -0.000000 -0.131841
v 0.122588 0.050453 -0.121805
v 0.122588 0.093225 -0.093226
v 0.122588 0.121805 -0.050454
v 0.123367 -0.000000 -0.264445
v 0.123367 -0.101199 -0.244315
v 0.123367 0.186990 0.186990
v 0.123367 0.244315 0.101198
v 0.123367 0.186990 -0.186990
v 0.123367 0.101198 -0.244315
v 0.123367 -0.244315 -0.101199
v 0.123367 -0.264445 -0.000000
v 0.123367 -0.000000 0.264444
v 0.123367 0.101198 0.244314
v 0.123367 -0.186991 -0.186990
v 0.123367 -0.186991 0.186990
v 0.123367 -0.101199 0.244314
v 0.123367 -0.244315 0.101198
v 0.081114 0.205815 -0.000000
v 0.081114 0.190148 0.078762
v 0.081114 0.078762 0.190148
v 0.081114 -0.000000 0.205814
v 0.081114 -0.145533 0.145533
v 0.081114 -0.190148 0.078762
v 0.081114 -0.190148 -0.078762
v 0.081114 -0.145533 -0.145533
v 0.081114 -0.000000 -0.205815
v 0.081114 0.078762 -0.190148
v 0.081114 0.190148 -0.078762
v 0.081114 0.145533 -0.145533
v 0.123367 0.244315 -0.101199
v 0.107703 -0.000000 0.323074
v 0.107703 -0.123635 0.298481
v 0.081114 -0.205815 -0.000000
v 0.123367 0.264444 -0.000000
v 0.107703 0.228448 0.228448
v 0.107703 0.123635 0.298481
v 0.081114 0.145533 0.145533
v 0.107703 0.323074 -0.000000
v 0.107703 0.298481 0.123635
v 0.081114 -0.078762 -0.190148
v 0.081114 -0.078762 0.190148
v 0.107703 -0.228448 -0.228448
v 0.107703 -0.123635 -0.298482
v 0.107703 -0.298482 -0.123635
v -0.115680 -0.298482 -0.123635
v -0.115680 -0.323074 -0.000000
v -0.115680 -0.298482 0.123635
v -0.115680 -0.228448 0.228448
v -0.115680 -0.123635 0.298481
v 0.107703 -0.323074 -0.000000
v 0.107703 -0.298482 0.123635
v 0.107703 -0.228448 0.228448
v -0.115680 -0.123635 -0.298482
v -0.115680 -0.228448 -0.228448
v 0.107703 -0.000000 -0.323074
v 0.107703 0.123635 -0.298482
v -0.115680 0.123635 -0.298482
v -0.115680 -0.000000 -0.323074
v 0.107703 0.228448 -0.228448
v -0.115680 0.228448 -0.228448
v 0.107703 0.298481 -0.123635
v -0.115680 0.298481 -0.123635
v -0.115680 0.323074 -0.000000
v -0.115680 0.298481 0.123635
v -0.115680 0.228448 0.228448
v -0.115680 0.123635 0.298481
v -0.115680 -0.000000 0.323074
vn 0.8723 -0.4518 -0.1871
vn 0.8723 -0.4890 -0.0000
vn 0.8723 -0.1871 -0.4518
vn 0.8723 -0.3458 -0.3458
vn 0.8723 -0.0000 -0.4890
vn 0.8723 0.1871 -0.4518
vn 0.8723 0.3458 -0.3458
vn 0.8723 0.4518 -0.1872
vn 1.0000 -0.0000 -0.0000
vn 0.9661 -0.2385 0.0988
vn 0.9661 -0.1825 0.1825
vn 0.9661 0.0988 -0.2385
vn 0.9661 0.1825 -0.1825
vn 0.9661 0.2581 -0.0000
vn 0.9661 0.2385 -0.0988
vn 0.9661 -0.1825 -0.1825
vn 0.9661 -0.0988 -0.2385
vn 0.9661 0.2385 0.0988
vn 0.9661 -0.2581 -0.0000
vn 0.8113 -0.2237 0.5402
vn 0.8113 -0.4134 0.4134
vn 0.9661 -0.0988 0.2385
vn 0.9661 -0.0000 0.2581
vn 0.8723 0.4518 0.1871
vn 0.8723 0.3458 0.3458
vn 0.8723 0.4518 -0.1871
vn 0.8723 0.4890 -0.0000
vn 0.8113 -0.5402 -0.2237
vn 0.8113 -0.5847 -0.0000
vn -0.0000 -0.3827 0.9239
vn -0.0000 -0.0000 1.0000
vn -0.0000 0.9239 -0.3827
vn -0.0000 0.7071 -0.7071
vn 0.8113 0.2237 0.5402
vn 0.8113 0.4134 0.4134
vn -0.0000 0.7071 0.7071
vn -0.0000 0.9239 0.3827
vn 0.8113 -0.5402 0.2237
vn -0.0000 -0.3827 -0.9239
vn -0.0000 -0.7071 -0.7071
vn 0.8113 0.5402 -0.2237
vn 0.8113 0.4134 -0.4134
vn -0.0000 -0.9239 0.3827
vn -0.0000 -0.7071 0.7071
vn 0.8113 -0.0000 0.5847
vn -0.0000 0.3827 0.9239
vn -0.0000 0.3827 -0.9239
vn -0.0000 -0.0000 -1.0000
vn 0.8113 0.5847 -0.0000
vn -1.0000 -0.0000 -0.0000
vn -0.0000 -0.9239 -0.3827
vn -0.0000 -1.0000 -0.0000
vn 0.9661 -0.0000 -0.2581
vn 0.8723 0.1871 0.4518
vn 0.8723 -0.0000 0.4890
vn 0.9661 -0.2385 -0.0988
vn 0.8723 -0.1871 0.4518
vn 0.8723 -0.3458 0.3458
vn 0.8723 -0.4518 0.1871
vn 0.9661 0.0988 0.2385
vn 0.9661 0.1825 0.1825
vn 0.8723 -0.4518 -0.1872
vn 0.8113 0.2237 -0.5402
vn 0.8113 -0.0000 -0.5847
vn -0.0000 1.0000 -0.0000
vn 0.8113 -0.2237 -0.5402
vn 0.8113 -0.4134 -0.4134
vn 0.8113 0.5402 0.2237
vt 0.403184 0.008293
vt 0.384139 0.022392
vt 0.384139 0.004505
vt 0.430117 0.035227
vt 0.406681 0.031729
vt 0.419329 0.019081
vt 0.416018 0.054271
vt 0.413592 0.042072
vt 0.430117 0.073316
vt 0.433905 0.054271
vt 0.406681 0.076814
vt 0.413592 0.066471
vt 0.419329 0.089462
vt 0.396339 0.083724
vt 0.401754 0.095197
vt 0.357297 0.095197
vt 0.357297 0.050740
vt 0.254735 0.011878
vt 0.245129 0.028783
vt 0.238843 0.022497
vt 0.318739 0.075882
vt 0.301834 0.085488
vt 0.310526 0.072480
vt 0.273482 0.106122
vt 0.288826 0.094180
vt 0.292228 0.102393
vt 0.308120 0.022497
vt 0.310526 0.041791
vt 0.301834 0.028783
vt 0.258137 0.094180
vt 0.273482 0.097232
vt 0.273482 0.008149
vt 0.258137 0.020091
vt 0.308120 0.091774
vt 0.226986 0.035018
vt 0.246311 0.026345
vt 0.237583 0.039407
vt 0.228224 0.038389
vt 0.233385 0.057136
vt 0.224495 0.057136
vt 0.365094 0.100250
vt 0.361597 0.076814
vt 0.371939 0.083724
vt 0.403184 0.100250
vt 0.384139 0.086151
vt 0.294579 0.007020
vt 0.274781 0.014552
vt 0.274781 0.003082
vt 0.138916 0.046238
vt 0.136693 0.057417
vt 0.177081 0.084404
vt 0.186558 0.078072
vt 0.226986 0.074613
vt 0.246311 0.083286
vt 0.238201 0.091396
vt 0.145248 0.078072
vt 0.154725 0.084404
vt 0.238200 0.018235
vt 0.259373 0.017617
vt 0.192890 0.046238
vt 0.186558 0.036762
vt 0.294579 0.102610
vt 0.303252 0.083286
vt 0.311362 0.091396
vt 0.154725 0.030430
vt 0.145248 0.036762
vt 0.234518 0.054815
vt 0.223048 0.054815
vt 0.254984 0.007020
vt 0.138916 0.068595
vt 0.192890 0.068595
vt 0.195113 0.057417
vt 0.192890 0.068595
vt 0.274781 0.106548
vt 0.290189 0.092014
vt 0.176805 0.016132
vt 0.125819 0.037252
vt 0.146938 0.088238
vt 0.177081 0.030430
vt 0.165903 0.028206
vt 0.313578 0.057136
vt 0.322468 0.057136
vt 0.318739 0.038389
vt 0.338160 0.073316
vt 0.352259 0.054271
vt 0.354686 0.066471
vt 0.292228 0.011878
vt 0.288826 0.020091
vt 0.273482 0.017039
vt 0.338160 0.035227
vt 0.361597 0.031729
vt 0.354686 0.042072
vt 0.348948 0.089462
vt 0.236437 0.041791
vt 0.365094 0.008293
vt 0.371939 0.024819
vt 0.228224 0.075882
vt 0.245129 0.085488
vt 0.238843 0.091774
vt 0.396338 0.024819
vt 0.254735 0.102393
vt 0.334372 0.054271
vt 0.322576 0.074613
vt 0.315045 0.054815
vt 0.326514 0.054815
vt 0.236437 0.072480
vt 0.348948 0.019081
vt 0.165903 0.086627
vt 0.237583 0.070224
vt 0.322576 0.035018
vt 0.303252 0.026345
vt 0.311362 0.018235
vt 0.311980 0.070223
vt 0.311980 0.039407
vt 0.254984 0.102610
vt 0.274781 0.095079
vt 0.186558 0.036762
vt 0.290189 0.017617
vt 0.384139 0.104038
vt 0.259373 0.092014
vt 0.367496 0.043926
vt 0.401754 0.050740
vt 0.379526 0.041533
vt 0.391555 0.043926
vt 0.408568 0.060939
vt 0.410961 0.072969
vt 0.408568 0.084998
vt 0.391555 0.102011
vt 0.379526 0.104404
vt 0.367496 0.102011
vt 0.350483 0.084998
vt 0.348090 0.072969
vt 0.350483 0.060939
vt 0.161872 0.091208
vt 0.176805 0.088238
vt 0.189465 0.079779
vt 0.197925 0.067119
vt 0.200895 0.052185
vt 0.197925 0.037252
vt 0.189465 0.024592
vt 0.161872 0.013162
vt 0.146938 0.016132
vt 0.134278 0.024592
vt 0.122849 0.052185
vt 0.125819 0.067119
vt 0.134278 0.079779
s 1
usemtl material
f 117/1/1 8/2/2 40/3/2
f 43/4/3 91/5/4 118/6/4
f 43/4/3 93/7/5 92/8/3
f 120/9/6 93/7/5 119/10/5
f 120/9/6 95/11/7 94/12/6
f 122/13/7 96/14/8 95/11/7
f 87/15/9 10/16/9 14/17/9
f 144/18/10 108/19/11 145/20/11
f 149/21/12 101/22/13 102/23/12
f 131/24/14 21/25/15 154/26/15
f 135/27/16 98/28/17 107/29/16
f 131/24/14 100/30/18 127/31/14
f 63/32/19 110/33/10 144/18/10
f 154/26/15 101/22/13 152/34/13
f 25/35/20 46/36/21 45/37/20
f 125/38/22 105/39/23 124/40/23
f 112/41/24 83/42/25 82/43/24
f 121/44/26 81/45/27 96/14/8
f 27/46/28 47/47/29 22/48/29
f 57/49/30 160/50/31 142/49/30
f 77/51/32 76/52/33 155/51/32
f 31/53/34 42/54/35 18/55/35
f 51/56/36 157/57/37 158/56/36
f 26/58/21 48/59/38 46/36/21
f 69/60/39 147/61/40 146/60/39
f 30/62/41 115/63/42 29/64/42
f 61/65/43 141/66/44 62/65/43
f 25/35/20 44/67/45 32/68/45
f 123/69/38 47/47/29 48/59/38
f 129/70/46 158/56/36 159/70/46
f 73/71/47 151/72/48 150/73/47
f 23/74/49 39/75/41 30/62/41
f 138/76/50 58/77/50 50/78/50
f 65/79/51 64/80/52 66/79/51
f 149/21/12 97/81/53 148/82/53
f 136/83/17 97/81/53 98/28/17
f 113/84/54 4/85/55 84/86/54
f 137/87/56 107/29/16 103/88/56
f 63/32/19 103/88/56 104/89/19
f 134/90/57 6/91/58 86/92/57
f 113/84/54 83/42/25 130/93/25
f 125/38/22 108/19/11 109/94/22
f 116/95/59 8/2/2 88/96/59
f 53/97/60 99/98/61 128/99/61
f 118/6/4 90/100/62 117/1/1
f 132/101/18 99/98/61 100/30/18
f 134/90/57 4/85/55 114/102/55
f 17/103/63 36/104/64 20/105/64
f 53/97/60 105/39/23 106/106/60
f 116/95/59 6/91/58 38/107/58
f 79/108/65 155/51/32 156/108/65
f 31/53/34 44/67/45 133/109/34
f 19/110/66 34/111/67 28/112/67
f 55/50/31 159/70/46 160/50/31
f 17/103/63 115/63/42 37/113/63
f 59/66/44 142/49/30 141/66/44
f 19/110/66 36/104/64 35/114/66
f 143/80/52 62/65/43 64/80/52
f 24/115/68 126/116/49 23/74/49
f 67/117/40 66/79/51 147/61/40
f 28/112/67 33/118/28 27/46/28
f 71/72/48 146/60/39 151/72/48
f 112/41/24 81/45/27 111/119/27
f 75/52/33 150/73/47 76/52/33
f 49/57/37 156/108/65 157/57/37
f 18/55/35 41/120/68 24/115/68
f 117/1/1 90/100/62 8/2/2
f 43/4/3 92/8/3 91/5/4
f 43/4/3 119/10/5 93/7/5
f 120/9/6 94/12/6 93/7/5
f 120/9/6 122/13/7 95/11/7
f 122/13/7 121/44/26 96/14/8
f 14/17/9 16/121/9 2/122/9
f 16/121/9 15/123/9 2/122/9
f 15/123/9 1/124/9 2/122/9
f 2/122/9 3/125/9 87/15/9
f 3/125/9 85/126/9 87/15/9
f 85/126/9 5/127/9 87/15/9
f 87/15/9 7/128/9 89/129/9
f 89/129/9 9/130/9 87/15/9
f 9/130/9 10/16/9 87/15/9
f 10/16/9 11/131/9 12/132/9
f 12/132/9 13/133/9 10/16/9
f 13/133/9 14/17/9 10/16/9
f 14/17/9 2/122/9 87/15/9
f 144/18/10 110/33/10 108/19/11
f 149/21/12 152/34/13 101/22/13
f 131/24/14 127/31/14 21/25/15
f 135/27/16 136/83/17 98/28/17
f 131/24/14 132/101/18 100/30/18
f 63/32/19 104/89/19 110/33/10
f 154/26/15 21/25/15 101/22/13
f 25/35/20 26/58/21 46/36/21
f 125/38/22 109/94/22 105/39/23
f 112/41/24 130/93/25 83/42/25
f 121/44/26 111/119/27 81/45/27
f 27/46/28 33/118/28 47/47/29
f 57/49/30 55/50/31 160/50/31
f 77/51/32 75/52/33 76/52/33
f 31/53/34 133/109/34 42/54/35
f 51/56/36 49/57/37 157/57/37
f 26/58/21 123/69/38 48/59/38
f 69/60/39 67/117/40 147/61/40
f 30/62/41 39/75/41 115/63/42
f 61/65/43 59/66/44 141/66/44
f 25/35/20 45/37/20 44/67/45
f 123/69/38 22/48/29 47/47/29
f 129/70/46 51/56/36 158/56/36
f 23/74/49 126/116/49 39/75/41
f 50/78/50 80/134/50 78/135/50
f 78/135/50 153/136/50 74/137/50
f 74/137/50 72/138/50 70/139/50
f 70/139/50 68/140/50 74/137/50
f 68/140/50 138/76/50 74/137/50
f 138/76/50 139/141/50 140/142/50
f 140/142/50 60/143/50 58/77/50
f 58/77/50 56/144/50 54/145/50
f 54/145/50 52/146/50 50/78/50
f 50/78/50 78/135/50 138/76/50
f 78/135/50 74/137/50 138/76/50
f 138/76/50 140/142/50 58/77/50
f 58/77/50 54/145/50 50/78/50
f 65/79/51 143/80/52 64/80/52
f 149/21/12 102/23/12 97/81/53
f 136/83/17 148/82/53 97/81/53
f 113/84/54 114/102/55 4/85/55
f 137/87/56 135/27/16 107/29/16
f 63/32/19 137/87/56 103/88/56
f 134/90/57 38/107/58 6/91/58
f 113/84/54 84/86/54 83/42/25
f 125/38/22 145/20/11 108/19/11
f 116/95/59 40/3/2 8/2/2
f 53/97/60 106/106/60 99/98/61
f 118/6/4 91/5/4 90/100/62
f 132/101/18 128/99/61 99/98/61
f 134/90/57 86/92/57 4/85/55
f 17/103/63 37/113/63 36/104/64
f 53/97/60 124/40/23 105/39/23
f 116/95/59 88/96/59 6/91/58
f 79/108/65 77/51/32 155/51/32
f 31/53/34 32/68/45 44/67/45
f 19/110/66 35/114/66 34/111/67
f 55/50/31 129/70/46 159/70/46
f 17/103/63 29/64/42 115/63/42
f 59/66/44 57/49/30 142/49/30
f 19/110/66 20/105/64 36/104/64
f 143/80/52 61/65/43 62/65/43
f 24/115/68 41/120/68 126/116/49
f 67/117/40 65/79/51 66/79/51
f 28/112/67 34/111/67 33/118/28
f 71/72/48 69/60/39 146/60/39
f 112/41/24 82/43/24 81/45/27
f 75/52/33 73/71/47 150/73/47
f 49/57/37 79/108/65 156/108/65
f 18/55/35 42/54/35 41/120/68
f 73/71/47 71/72/48 151/72/48
