# Blender 5.1.0
# www.blender.org
mtllib P5-10.mtl
o RRW.002
v -0.122588 0.121805 0.050453
v -0.122588 0.093225 0.093225
v -0.122588 0.050453 0.121804
v -0.122588 -0.000000 0.131840
v -0.122588 -0.050453 0.121804
v -0.122588 -0.093226 0.093225
v -0.122588 -0.121805 0.050453
v -0.122588 -0.131841 -0.000000
v -0.122588 -0.121805 -0.050454
v -0.122588 -0.093226 -0.093226
v -0.122588 -0.050453 -0.121805
v -0.122588 -0.000000 -0.131841
v -0.122588 0.050453 -0.121805
v -0.122588 0.093225 -0.093226
v -0.122588 0.131841 -0.000000
v -0.122588 0.121805 -0.050454
v -0.123367 -0.101199 0.244314
v -0.123367 -0.186991 -0.186991
v -0.123367 0.101199 0.244314
v -0.123367 -0.000000 0.264444
v -0.123367 0.244315 -0.101199
v -0.123367 0.264444 -0.000000
v -0.123367 -0.264444 -0.000000
v -0.123367 -0.244315 -0.101199
v -0.123367 0.101198 -0.244315
v -0.123367 0.186990 -0.186991
v -0.123367 0.244315 0.101198
v -0.123367 0.186990 0.186990
v -0.123367 -0.186990 0.186990
v -0.123367 -0.244315 0.101198
v -0.123367 -0.101199 -0.244315
v -0.123367 -0.000000 -0.264445
v -0.081114 0.190148 0.078761
v -0.081114 0.145533 0.145533
v -0.081114 0.078762 0.190148
v -0.081114 -0.000000 0.205814
v -0.081114 -0.078762 0.190148
v -0.081114 -0.145533 0.145533
v -0.081114 -0.190148 0.078761
v -0.081114 -0.205815 -0.000000
v -0.081114 -0.190148 -0.078762
v -0.081114 -0.145533 -0.145533
v -0.081114 -0.078762 -0.190148
v -0.081114 -0.000000 -0.205815
v -0.081114 0.078762 -0.190148
v -0.081114 0.145533 -0.145533
v -0.081114 0.205815 -0.000000
v -0.081114 0.190148 -0.078762
v -0.107703 0.298481 0.123635
v 0.115680 0.298481 0.123635
v -0.107703 0.228448 0.228447
v 0.115680 0.228448 0.228447
v -0.107703 0.123635 0.298481
v 0.115680 0.123635 0.298481
v -0.107703 -0.000000 0.323074
v 0.115680 0.000000 0.323074
v -0.107703 -0.123635 0.298481
v 0.115680 -0.123635 0.298481
v -0.107703 -0.228448 0.228447
v 0.115680 -0.228448 0.228447
v -0.107703 -0.298481 0.123635
v 0.115680 -0.298481 0.123635
v -0.107703 -0.323074 -0.000000
v 0.115680 -0.323074 -0.000000
v -0.107703 -0.298481 -0.123635
v 0.115680 -0.298481 -0.123635
v -0.107703 -0.228448 -0.228448
v 0.115680 -0.228448 -0.228448
v -0.107703 -0.123635 -0.298482
v 0.115680 -0.123635 -0.298482
v -0.107703 -0.000000 -0.323074
v 0.115680 -0.000000 -0.323074
v -0.107703 0.123635 -0.298482
v 0.115680 0.123635 -0.298482
v -0.107703 0.228448 -0.228448
v 0.115680 0.228448 -0.228448
v -0.107703 0.298481 -0.123635
v 0.115680 0.298481 -0.123635
v -0.107703 0.323074 -0.000000
v 0.115680 0.323074 -0.000000
v -0.122588 0.131841 -0.000000
v -0.122588 0.121805 0.050453
v -0.122588 0.093225 0.093225
v -0.122588 0.050453 0.121804
v -0.122588 -0.000000 0.131840
v -0.122588 -0.050453 0.121804
v -0.122588 -0.093226 0.093225
v -0.122588 -0.121805 0.050453
v -0.122588 -0.131841 -0.000000
v -0.122588 -0.121805 -0.050454
v -0.122588 -0.093226 -0.093226
v -0.122588 -0.050453 -0.121805
v -0.122588 -0.000000 -0.131841
v -0.122588 0.050453 -0.121805
v -0.122588 0.093225 -0.093226
v -0.122588 0.121805 -0.050454
v -0.123367 -0.000000 -0.264445
v -0.123367 -0.101199 -0.244315
v -0.123367 0.186990 0.186990
v -0.123367 0.244315 0.101198
v -0.123367 0.186990 -0.186991
v -0.123367 0.101198 -0.244315
v -0.123367 -0.244315 -0.101199
v -0.123367 -0.264444 -0.000000
v -0.123367 -0.000000 0.264444
v -0.123367 0.101199 0.244314
v -0.123367 -0.186991 -0.186991
v -0.123367 -0.186990 0.186990
v -0.123367 -0.101199 0.244314
v -0.123367 -0.244315 0.101198
v -0.081114 0.205815 -0.000000
v -0.081114 0.190148 0.078761
v -0.081114 0.078762 0.190148
v -0.081114 -0.000000 0.205814
v -0.081114 -0.145533 0.145533
v -0.081114 -0.190148 0.078761
v -0.081114 -0.190148 -0.078762
v -0.081114 -0.145533 -0.145533
v -0.081114 -0.000000 -0.205815
v -0.081114 0.078762 -0.190148
v -0.081114 0.190148 -0.078762
v -0.081114 0.145533 -0.145533
v -0.123367 0.244315 -0.101199
v -0.107703 -0.000000 0.323074
v -0.107703 -0.123635 0.298481
v -0.081114 -0.205815 -0.000000
v -0.123367 0.264444 -0.000000
v -0.107703 0.228448 0.228447
v -0.107703 0.123635 0.298481
v -0.081114 0.145533 0.145533
v -0.107703 0.323074 -0.000000
v -0.107703 0.298481 0.123635
v -0.081114 -0.078762 -0.190148
v -0.081114 -0.078762 0.190148
v -0.107703 -0.228448 -0.228448
v -0.107703 -0.123635 -0.298482
v -0.107703 -0.298481 -0.123635
v 0.115680 -0.298481 -0.123635
v 0.115680 -0.323074 -0.000000
v 0.115680 -0.298481 0.123635
v 0.115680 -0.228448 0.228447
v 0.115680 -0.123635 0.298481
v -0.107703 -0.323074 -0.000000
v -0.107703 -0.298481 0.123635
v -0.107703 -0.228448 0.228447
v 0.115680 -0.123635 -0.298482
v 0.115680 -0.228448 -0.228448
v -0.107703 -0.000000 -0.323074
v -0.107703 0.123635 -0.298482
v 0.115680 0.123635 -0.298482
v 0.115680 -0.000000 -0.323074
v -0.107703 0.228448 -0.228448
v 0.115680 0.228448 -0.228448
v -0.107703 0.298481 -0.123635
v 0.115680 0.298481 -0.123635
v 0.115680 0.323074 -0.000000
v 0.115680 0.298481 0.123635
v 0.115680 0.228448 0.228447
v 0.115680 0.123635 0.298481
v 0.115680 0.000000 0.323074
vn -0.8723 -0.4890 -0.0000
vn -0.8723 -0.4518 -0.1871
vn -0.8723 -0.3458 -0.3458
vn -0.8723 -0.1871 -0.4518
vn -0.8723 -0.0000 -0.4890
vn -0.8723 0.1871 -0.4518
vn -0.8723 0.3458 -0.3458
vn -0.8723 0.4518 -0.1872
vn -0.8723 0.4518 -0.1871
vn -1.0000 -0.0000 -0.0000
vn -0.9661 -0.1825 0.1825
vn -0.9661 -0.2385 0.0988
vn -0.9661 0.0988 -0.2385
vn -0.9661 0.1825 -0.1825
vn -0.9661 0.2385 -0.0988
vn -0.9661 0.2581 -0.0000
vn -0.9661 -0.1825 -0.1825
vn -0.9661 -0.0988 -0.2385
vn -0.9661 0.2385 0.0988
vn -0.9661 -0.2581 -0.0000
vn -0.8113 -0.2237 0.5402
vn -0.8113 -0.4134 0.4134
vn -0.9661 -0.0000 0.2581
vn -0.9661 -0.0988 0.2385
vn -0.8723 0.4518 0.1872
vn -0.8723 0.3458 0.3458
vn -0.8723 0.4518 0.1871
vn -0.8723 0.4890 -0.0000
vn -0.8113 -0.5847 -0.0000
vn -0.8113 -0.5402 -0.2237
vn -0.0000 -0.0000 1.0000
vn -0.0000 -0.3827 0.9239
vn -0.0000 0.7071 -0.7071
vn -0.0000 0.9239 -0.3827
vn -0.8113 0.4134 0.4134
vn -0.8113 0.2237 0.5402
vn -0.0000 0.9239 0.3827
vn -0.0000 0.7071 0.7071
vn -0.8113 -0.5402 0.2237
vn -0.0000 -0.3827 -0.9239
vn -0.0000 -0.7071 -0.7071
vn -0.8113 0.4134 -0.4134
vn -0.8113 0.5402 -0.2237
vn -0.0000 -0.7071 0.7071
vn -0.0000 -0.9239 0.3827
vn -0.8113 -0.0000 0.5847
vn -0.0000 0.3827 0.9239
vn -0.0000 -0.0000 -1.0000
vn -0.0000 0.3827 -0.9239
vn -0.8113 0.5847 -0.0000
vn 1.0000 -0.0000 -0.0000
vn -0.0000 -1.0000 -0.0000
vn -0.0000 -0.9239 -0.3827
vn -0.9661 -0.0000 -0.2581
vn -0.8723 0.1871 0.4518
vn -0.8723 -0.0000 0.4890
vn -0.9661 -0.2385 -0.0988
vn -0.8723 -0.1871 0.4518
vn -0.8723 -0.3458 0.3458
vn -0.8723 -0.4518 0.1871
vn -0.9661 0.1825 0.1825
vn -0.9661 0.0988 0.2385
vn -0.8723 -0.4518 -0.1872
vn -0.8113 -0.0000 -0.5847
vn -0.8113 0.2237 -0.5402
vn -0.0000 1.0000 -0.0000
vn -0.8113 -0.4134 -0.4134
vn -0.8113 -0.2237 -0.5402
vn -0.8113 0.5402 0.2237
vt 0.384139 0.022392
vt 0.403184 0.008293
vt 0.384139 0.004505
vt 0.406681 0.031729
vt 0.430117 0.035227
vt 0.419329 0.019081
vt 0.416018 0.054271
vt 0.433905 0.054271
vt 0.430117 0.073316
vt 0.406681 0.076814
vt 0.419329 0.089462
vt 0.396339 0.083724
vt 0.403184 0.100250
vt 0.379526 0.041533
vt 0.348090 0.072969
vt 0.379526 0.104404
vt 0.245129 0.028783
vt 0.254735 0.011878
vt 0.238843 0.022497
vt 0.318739 0.075882
vt 0.301834 0.085488
vt 0.308120 0.091774
vt 0.288826 0.094180
vt 0.273482 0.106122
vt 0.292228 0.102393
vt 0.308120 0.022497
vt 0.310526 0.041791
vt 0.318739 0.038389
vt 0.258137 0.094180
vt 0.254735 0.102393
vt 0.258137 0.020091
vt 0.273482 0.008149
vt 0.226986 0.035018
vt 0.246311 0.026345
vt 0.238200 0.018235
vt 0.233385 0.057136
vt 0.228224 0.038389
vt 0.224495 0.057136
vt 0.371939 0.083724
vt 0.348948 0.089462
vt 0.365094 0.100250
vt 0.384139 0.086151
vt 0.384139 0.104038
vt 0.274781 0.014552
vt 0.294579 0.007020
vt 0.274781 0.003082
vt 0.136693 0.057417
vt 0.138916 0.046238
vt 0.186558 0.078072
vt 0.177081 0.084404
vt 0.246311 0.083286
vt 0.226986 0.074613
vt 0.238201 0.091396
vt 0.154725 0.084404
vt 0.145248 0.078072
vt 0.259373 0.017617
vt 0.254984 0.007020
vt 0.192890 0.046238
vt 0.186558 0.036762
vt 0.303252 0.083286
vt 0.294579 0.102610
vt 0.311362 0.091396
vt 0.145248 0.036762
vt 0.154725 0.030430
vt 0.234518 0.054815
vt 0.223048 0.054815
vt 0.138916 0.068595
vt 0.195113 0.057417
vt 0.192890 0.068595
vt 0.192890 0.068595
vt 0.290189 0.092014
vt 0.274781 0.106548
vt 0.125819 0.067119
vt 0.146938 0.016132
vt 0.197925 0.037252
vt 0.165903 0.028206
vt 0.177081 0.030430
vt 0.313578 0.057136
vt 0.322468 0.057136
vt 0.338160 0.073316
vt 0.352259 0.054271
vt 0.334372 0.054271
vt 0.292228 0.011878
vt 0.301834 0.028783
vt 0.288826 0.020091
vt 0.338160 0.035227
vt 0.361597 0.031729
vt 0.348948 0.019081
vt 0.361597 0.076814
vt 0.365094 0.008293
vt 0.245129 0.085488
vt 0.228224 0.075882
vt 0.238843 0.091774
vt 0.396338 0.024819
vt 0.315045 0.054815
vt 0.322576 0.074613
vt 0.326514 0.054815
vt 0.165903 0.086627
vt 0.303252 0.026345
vt 0.322576 0.035018
vt 0.311362 0.018235
vt 0.274781 0.095079
vt 0.254984 0.102610
vt 0.186558 0.036762
vt 0.290189 0.017617
vt 0.259373 0.092014
vt 0.413592 0.042072
vt 0.413592 0.066471
vt 0.367496 0.043926
vt 0.357297 0.050740
vt 0.350483 0.060939
vt 0.350483 0.084998
vt 0.357297 0.095197
vt 0.367496 0.102011
vt 0.391555 0.102011
vt 0.401754 0.095197
vt 0.408568 0.084998
vt 0.410961 0.072969
vt 0.408568 0.060939
vt 0.401754 0.050740
vt 0.391555 0.043926
vt 0.310526 0.072480
vt 0.273482 0.097232
vt 0.273482 0.017039
vt 0.237583 0.039407
vt 0.236437 0.041791
vt 0.237583 0.070224
vt 0.176805 0.088238
vt 0.161872 0.091208
vt 0.146938 0.088238
vt 0.134278 0.079779
vt 0.122849 0.052185
vt 0.125819 0.037252
vt 0.134278 0.024592
vt 0.161872 0.013162
vt 0.176805 0.016132
vt 0.189465 0.024592
vt 0.200895 0.052185
vt 0.197925 0.067119
vt 0.189465 0.079779
vt 0.354686 0.066471
vt 0.354686 0.042072
vt 0.371939 0.024819
vt 0.236437 0.072480
vt 0.311980 0.070223
vt 0.311980 0.039407
s 1
usemtl material
f 8/1/1 117/2/2 40/3/1
f 91/4/3 43/5/4 118/6/3
f 43/5/4 93/7/5 119/8/5
f 93/7/5 120/9/6 119/8/5
f 120/9/6 95/10/7 122/11/7
f 122/11/7 96/12/8 121/13/9
f 15/14/10 12/15/10 89/16/10
f 108/17/11 144/18/12 145/19/11
f 149/20/13 101/21/14 152/22/14
f 21/23/15 131/24/16 154/25/15
f 135/26/17 98/27/18 136/28/18
f 131/24/16 100/29/19 132/30/19
f 110/31/12 63/32/20 144/18/12
f 101/21/14 154/25/15 152/22/14
f 25/33/21 46/34/22 26/35/22
f 105/36/23 125/37/24 124/38/23
f 82/39/25 130/40/26 112/41/27
f 121/13/9 81/42/28 111/43/28
f 47/44/29 27/45/30 22/46/29
f 160/47/31 57/48/32 142/48/32
f 76/49/33 77/50/34 155/50/34
f 42/51/35 31/52/36 18/53/35
f 157/54/37 51/55/38 158/55/38
f 26/35/22 48/56/39 123/57/39
f 146/58/40 67/59/41 69/58/40
f 115/60/42 30/61/43 29/62/42
f 141/63/44 61/64/45 62/64/45
f 44/65/46 25/33/21 32/66/46
f 123/57/39 47/44/29 22/46/29
f 158/55/38 129/67/47 159/67/47
f 151/68/48 73/69/49 150/70/49
f 39/71/43 23/72/50 30/61/43
f 54/73/51 140/74/51 70/75/51
f 64/76/52 65/77/53 66/77/53
f 97/78/54 149/20/13 148/79/54
f 136/28/18 97/78/54 148/79/54
f 113/80/55 4/81/56 114/82/56
f 137/83/57 107/84/17 135/26/17
f 63/32/20 103/85/57 137/83/57
f 134/86/58 6/87/59 38/88/59
f 83/89/26 113/80/55 130/40/26
f 125/37/24 108/17/11 145/19/11
f 116/90/60 8/1/1 40/3/1
f 99/91/61 53/92/62 128/93/61
f 90/94/63 118/6/3 117/2/2
f 132/30/19 99/91/61 128/93/61
f 4/81/56 134/86/58 114/82/56
f 36/95/64 17/96/65 20/97/64
f 53/92/62 105/36/23 124/38/23
f 6/87/59 116/90/60 38/88/59
f 155/50/34 79/98/66 156/98/66
f 31/52/36 44/65/46 32/66/46
f 34/99/67 19/100/68 28/101/67
f 159/67/47 55/47/31 160/47/31
f 17/96/65 115/60/42 29/62/42
f 141/63/44 57/48/32 59/63/44
f 19/100/68 36/95/64 20/97/64
f 62/64/45 143/76/52 64/76/52
f 126/102/50 24/103/69 23/72/50
f 66/77/53 67/59/41 147/104/41
f 33/105/30 28/101/67 27/45/30
f 146/58/40 71/68/48 151/68/48
f 81/42/28 112/41/27 111/43/28
f 150/70/49 75/49/33 76/49/33
f 156/98/66 49/54/37 157/54/37
f 41/106/69 18/53/35 24/103/69
f 8/1/1 90/94/63 117/2/2
f 91/4/3 92/107/4 43/5/4
f 43/5/4 92/107/4 93/7/5
f 93/7/5 94/108/6 120/9/6
f 120/9/6 94/108/6 95/10/7
f 122/11/7 95/10/7 96/12/8
f 15/14/10 16/109/10 14/110/10
f 14/110/10 13/111/10 15/14/10
f 13/111/10 12/15/10 15/14/10
f 12/15/10 11/112/10 89/16/10
f 11/112/10 10/113/10 89/16/10
f 10/113/10 9/114/10 89/16/10
f 89/16/10 7/115/10 87/116/10
f 87/116/10 5/117/10 89/16/10
f 5/117/10 85/118/10 89/16/10
f 85/118/10 3/119/10 2/120/10
f 2/120/10 1/121/10 15/14/10
f 85/118/10 2/120/10 89/16/10
f 2/120/10 15/14/10 89/16/10
f 108/17/11 110/31/12 144/18/12
f 149/20/13 102/122/13 101/21/14
f 21/23/15 127/123/16 131/24/16
f 135/26/17 107/84/17 98/27/18
f 131/24/16 127/123/16 100/29/19
f 110/31/12 104/124/20 63/32/20
f 101/21/14 21/23/15 154/25/15
f 25/33/21 45/125/21 46/34/22
f 105/36/23 109/126/24 125/37/24
f 82/39/25 83/89/26 130/40/26
f 121/13/9 96/12/8 81/42/28
f 47/44/29 33/105/30 27/45/30
f 160/47/31 55/47/31 57/48/32
f 42/51/35 133/127/36 31/52/36
f 26/35/22 46/34/22 48/56/39
f 146/58/40 147/104/41 67/59/41
f 115/60/42 39/71/43 30/61/43
f 141/63/44 59/63/44 61/64/45
f 44/65/46 45/125/21 25/33/21
f 123/57/39 48/56/39 47/44/29
f 151/68/48 71/68/48 73/69/49
f 39/71/43 126/102/50 23/72/50
f 78/128/51 80/129/51 50/130/51
f 50/130/51 52/131/51 54/73/51
f 54/73/51 56/132/51 58/133/51
f 58/133/51 60/134/51 140/74/51
f 140/74/51 139/135/51 138/136/51
f 138/136/51 68/137/51 140/74/51
f 68/137/51 70/75/51 140/74/51
f 70/75/51 72/138/51 74/139/51
f 74/139/51 153/140/51 78/128/51
f 78/128/51 50/130/51 54/73/51
f 54/73/51 58/133/51 140/74/51
f 70/75/51 74/139/51 78/128/51
f 78/128/51 54/73/51 70/75/51
f 64/76/52 143/76/52 65/77/53
f 97/78/54 102/122/13 149/20/13
f 136/28/18 98/27/18 97/78/54
f 113/80/55 84/141/55 4/81/56
f 137/83/57 103/85/57 107/84/17
f 63/32/20 104/124/20 103/85/57
f 134/86/58 86/142/58 6/87/59
f 83/89/26 84/141/55 113/80/55
f 125/37/24 109/126/24 108/17/11
f 116/90/60 88/143/60 8/1/1
f 99/91/61 106/144/62 53/92/62
f 90/94/63 91/4/3 118/6/3
f 132/30/19 100/29/19 99/91/61
f 4/81/56 86/142/58 134/86/58
f 36/95/64 37/145/65 17/96/65
f 53/92/62 106/144/62 105/36/23
f 6/87/59 88/143/60 116/90/60
f 31/52/36 133/127/36 44/65/46
f 34/99/67 35/146/68 19/100/68
f 17/96/65 37/145/65 115/60/42
f 141/63/44 142/48/32 57/48/32
f 19/100/68 35/146/68 36/95/64
f 62/64/45 61/64/45 143/76/52
f 126/102/50 41/106/69 24/103/69
f 66/77/53 65/77/53 67/59/41
f 33/105/30 34/99/67 28/101/67
f 146/58/40 69/58/40 71/68/48
f 81/42/28 82/39/25 112/41/27
f 150/70/49 73/69/49 75/49/33
f 41/106/69 42/51/35 18/53/35
f 76/49/33 75/49/33 77/50/34
f 157/54/37 49/54/37 51/55/38
f 158/55/38 51/55/38 129/67/47
f 155/50/34 77/50/34 79/98/66
f 159/67/47 129/67/47 55/47/31
f 156/98/66 79/98/66 49/54/37
