# Blender 5.1.0
# www.blender.org
mtllib P5-8.mtl
o FRW.003
v -0.122258 0.121805 0.051248
v -0.121981 0.093225 0.094019
v -0.121795 0.050453 0.122598
v -0.121730 -0.000000 0.132634
v -0.121795 -0.050453 0.122598
v -0.121981 -0.093226 0.094019
v -0.122258 -0.121805 0.051248
v -0.122585 -0.131841 0.000796
v -0.122913 -0.121805 -0.049657
v -0.123190 -0.093226 -0.092428
v -0.123376 -0.050453 -0.121007
v -0.123441 -0.000000 -0.131042
v -0.123376 0.050453 -0.121007
v -0.123190 0.093225 -0.092428
v -0.122585 0.131841 0.000796
v -0.122913 0.121805 -0.049657
v -0.121779 -0.101199 0.245110
v -0.124578 -0.186991 -0.186186
v -0.121779 0.101198 0.245110
v -0.121649 -0.000000 0.265239
v -0.124021 0.244315 -0.100396
v -0.123365 0.264444 0.000801
v -0.123365 -0.264444 0.000801
v -0.124021 -0.244315 -0.100396
v -0.124950 0.101198 -0.243509
v -0.124578 0.186990 -0.186186
v -0.122708 0.244315 0.101997
v -0.122151 0.186990 0.187787
v -0.122151 -0.186991 0.187787
v -0.122708 -0.244315 0.101997
v -0.124950 -0.101199 -0.243509
v -0.125080 -0.000000 -0.263638
v -0.080601 0.190148 0.079287
v -0.080168 0.145533 0.146057
v -0.079878 0.078762 0.190671
v -0.079777 -0.000000 0.206337
v -0.079878 -0.078762 0.190671
v -0.080168 -0.145533 0.146057
v -0.080601 -0.190148 0.079287
v -0.081112 -0.205815 0.000527
v -0.081623 -0.190148 -0.078234
v -0.082056 -0.145533 -0.145003
v -0.082346 -0.078762 -0.189617
v -0.082447 -0.000000 -0.205284
v -0.082346 0.078762 -0.189617
v -0.082056 0.145533 -0.145003
v -0.081112 0.205815 0.000527
v -0.081623 0.190148 -0.078234
v -0.106899 0.298481 0.124331
v 0.116480 0.298481 0.122882
v -0.106219 0.228448 0.229142
v -0.105764 0.123635 0.299174
v 0.117614 0.123635 0.297725
v -0.105605 -0.000000 0.323766
v 0.117774 -0.000000 0.322317
v -0.105764 -0.123635 0.299174
v 0.117614 -0.123635 0.297725
v -0.106219 -0.228448 0.229142
v 0.117160 -0.228448 0.227693
v -0.106899 -0.298481 0.124332
v 0.116480 -0.298481 0.122882
v -0.107701 -0.323074 0.000699
v 0.115677 -0.323074 -0.000750
v -0.108503 -0.298481 -0.122933
v 0.114875 -0.298481 -0.124383
v -0.109183 -0.228448 -0.227744
v 0.114195 -0.228448 -0.229193
v -0.109638 -0.123635 -0.297776
v 0.113741 -0.123635 -0.299225
v -0.109797 -0.000000 -0.322368
v -0.109638 0.123635 -0.297776
v 0.113741 0.123635 -0.299225
v -0.109183 0.228448 -0.227744
v 0.114195 0.228448 -0.229193
v -0.108503 0.298481 -0.122933
v 0.114875 0.298481 -0.124383
v -0.107701 0.323074 0.000699
v 0.115677 0.323074 -0.000750
v -0.122585 0.131841 0.000796
v -0.122258 0.121805 0.051248
v -0.121981 0.093225 0.094019
v -0.121795 0.050453 0.122598
v -0.121730 -0.000000 0.132634
v -0.121795 -0.050453 0.122598
v -0.121981 -0.093226 0.094019
v -0.122258 -0.121805 0.051248
v -0.122585 -0.131841 0.000796
v -0.122913 -0.121805 -0.049657
v -0.123190 -0.093226 -0.092428
v -0.123376 -0.050453 -0.121007
v -0.123441 -0.000000 -0.131042
v -0.123376 0.050453 -0.121007
v -0.123190 0.093225 -0.092428
v -0.122913 0.121805 -0.049657
v -0.125080 -0.000000 -0.263638
v -0.124950 -0.101199 -0.243509
v -0.122151 0.186990 0.187787
v -0.122708 0.244315 0.101997
v -0.124578 0.186990 -0.186186
v -0.124950 0.101198 -0.243509
v -0.124021 -0.244315 -0.100396
v -0.123365 -0.264444 0.000801
v -0.121649 -0.000000 0.265239
v -0.121779 0.101198 0.245110
v -0.124578 -0.186991 -0.186186
v -0.122151 -0.186991 0.187787
v -0.121779 -0.101199 0.245110
v -0.122708 -0.244315 0.101997
v -0.081112 0.205815 0.000527
v -0.080601 0.190148 0.079287
v -0.079878 0.078762 0.190671
v -0.079777 -0.000000 0.206337
v -0.080168 -0.145533 0.146057
v -0.080601 -0.190148 0.079287
v -0.081623 -0.190148 -0.078234
v -0.082056 -0.145533 -0.145003
v -0.082447 -0.000000 -0.205284
v -0.082346 0.078762 -0.189617
v -0.081623 0.190148 -0.078234
v -0.082056 0.145533 -0.145003
v -0.124021 0.244315 -0.100396
v -0.105605 -0.000000 0.323766
v -0.105764 -0.123635 0.299174
v -0.081112 -0.205815 0.000527
v -0.123365 0.264444 0.000801
v -0.106219 0.228448 0.229142
v -0.105764 0.123635 0.299174
v -0.080168 0.145533 0.146057
v -0.107701 0.323074 0.000699
v -0.106899 0.298481 0.124331
v -0.082346 -0.078762 -0.189617
v -0.079878 -0.078762 0.190671
v -0.109183 -0.228448 -0.227744
v -0.109638 -0.123635 -0.297776
v -0.108503 -0.298481 -0.122933
v 0.114875 -0.298481 -0.124383
v 0.115677 -0.323074 -0.000750
v 0.116480 -0.298481 0.122882
v 0.117160 -0.228448 0.227693
v 0.117614 -0.123635 0.297725
v -0.107701 -0.323074 0.000699
v -0.106899 -0.298481 0.124332
v -0.106219 -0.228448 0.229142
v 0.113741 -0.123635 -0.299225
v 0.114195 -0.228448 -0.229193
v -0.109797 -0.000000 -0.322368
v -0.109638 0.123635 -0.297776
v 0.113741 0.123635 -0.299225
v 0.113581 -0.000000 -0.323818
v -0.109183 0.228448 -0.227744
v 0.114195 0.228448 -0.229193
v -0.108503 0.298481 -0.122933
v 0.114875 0.298481 -0.124383
v 0.115677 0.323074 -0.000750
v 0.116480 0.298481 0.122882
v 0.117160 0.228448 0.227693
v 0.117614 0.123635 0.297725
v 0.117774 -0.000000 0.322317
vn -0.8722 -0.4890 0.0057
vn -0.8735 -0.4518 -0.1815
vn -0.8745 -0.3458 -0.3401
vn -0.8752 -0.1871 -0.4461
vn -0.8754 -0.0000 -0.4834
vn -0.8752 0.1871 -0.4461
vn -0.8745 0.3458 -0.3401
vn -0.8735 0.4518 -0.1815
vn -1.0000 -0.0000 0.0065
vn -0.9649 -0.1825 0.1888
vn -0.9655 -0.2385 0.1050
vn -0.9676 0.0988 -0.2322
vn -0.9673 0.1825 -0.1762
vn -0.9667 0.2385 -0.0925
vn -0.9661 0.2581 0.0063
vn -0.9673 -0.1825 -0.1762
vn -0.9676 -0.0988 -0.2322
vn -0.9655 0.2385 0.1050
vn -0.9661 -0.2581 0.0063
vn -0.8077 -0.2237 0.5454
vn -0.8086 -0.4134 0.4187
vn -0.9644 -0.0000 0.2644
vn -0.9645 -0.0988 0.2447
vn -0.8710 0.4518 0.1928
vn -0.8700 0.3458 0.3515
vn -0.8722 0.4890 0.0057
vn -0.8113 -0.5847 0.0053
vn -0.8127 -0.5402 -0.2185
vn 0.0065 -0.0000 1.0000
vn 0.0060 -0.3827 0.9239
vn -0.0046 0.7071 -0.7071
vn -0.0025 0.9239 -0.3827
vn -0.8086 0.4134 0.4187
vn -0.8077 0.2237 0.5454
vn 0.0025 0.9239 0.3827
vn 0.0046 0.7071 0.7071
vn -0.8098 -0.5402 0.2290
vn -0.0046 -0.7071 -0.7071
vn -0.0060 -0.3827 -0.9239
vn -0.8139 0.4134 -0.4082
vn -0.8127 0.5402 -0.2185
vn 0.0046 -0.7071 0.7071
vn 0.0025 -0.9239 0.3827
vn -0.8075 -0.0000 0.5899
vn 0.0060 0.3827 0.9239
vn -0.8113 0.5847 0.0053
vn 1.0000 -0.0000 -0.0065
vn -0.0000 -1.0000 -0.0000
vn -0.0025 -0.9239 -0.3827
vn -0.9678 -0.0000 -0.2518
vn -0.8693 0.1871 0.4575
vn -0.8691 -0.0000 0.4947
vn -0.9667 -0.2385 -0.0925
vn -0.8693 -0.1871 0.4575
vn -0.8700 -0.3458 0.3515
vn -0.8710 -0.4518 0.1928
vn -0.9649 0.1825 0.1888
vn -0.9645 0.0988 0.2447
vn -0.8150 -0.0000 -0.5794
vn -0.8148 0.2237 -0.5349
vn -0.0000 1.0000 -0.0000
vn -0.8139 -0.4134 -0.4082
vn -0.8148 -0.2237 -0.5349
vn -0.8098 0.5402 0.2290
vn -0.0065 -0.0000 -1.0000
vn -0.0060 0.3828 -0.9238
vn -0.0060 0.3826 -0.9239
vt 0.384139 0.022392
vt 0.403184 0.008293
vt 0.384139 0.004505
vt 0.406681 0.031729
vt 0.430117 0.035227
vt 0.419329 0.019081
vt 0.416018 0.054271
vt 0.433905 0.054271
vt 0.430117 0.073316
vt 0.406681 0.076814
vt 0.419329 0.089462
vt 0.396339 0.083724
vt 0.403184 0.100250
vt 0.379526 0.104404
vt 0.410961 0.072969
vt 0.379526 0.041533
vt 0.245129 0.028783
vt 0.254735 0.011878
vt 0.238843 0.022497
vt 0.318739 0.075882
vt 0.301834 0.085488
vt 0.308120 0.091774
vt 0.292228 0.102393
vt 0.273482 0.097232
vt 0.273482 0.106122
vt 0.301834 0.028783
vt 0.318739 0.038389
vt 0.308120 0.022497
vt 0.254735 0.102393
vt 0.273482 0.017039
vt 0.273482 0.008149
vt 0.226986 0.035018
vt 0.246311 0.026345
vt 0.238200 0.018235
vt 0.233385 0.057136
vt 0.228224 0.038389
vt 0.224495 0.057136
vt 0.371939 0.083724
vt 0.348948 0.089462
vt 0.365094 0.100250
vt 0.384139 0.086151
vt 0.384139 0.104038
vt 0.274781 0.003082
vt 0.290189 0.017617
vt 0.294579 0.007020
vt 0.136693 0.057417
vt 0.138916 0.046238
vt 0.186558 0.078072
vt 0.177081 0.084404
vt 0.246311 0.083286
vt 0.226986 0.074613
vt 0.238201 0.091396
vt 0.154725 0.084404
vt 0.145248 0.078072
vt 0.259373 0.017617
vt 0.254984 0.007020
vt 0.186558 0.036762
vt 0.192890 0.046238
vt 0.303252 0.083286
vt 0.294579 0.102610
vt 0.311362 0.091396
vt 0.145248 0.036762
vt 0.154725 0.030430
vt 0.223048 0.054815
vt 0.237583 0.039407
vt 0.274781 0.014552
vt 0.138916 0.068595
vt 0.290189 0.092014
vt 0.274781 0.106548
vt 0.197925 0.067119
vt 0.176805 0.088238
vt 0.146938 0.016132
vt 0.165903 0.028206
vt 0.177081 0.030430
vt 0.313578 0.057136
vt 0.322468 0.057136
vt 0.338160 0.073316
vt 0.352259 0.054271
vt 0.334372 0.054271
vt 0.288826 0.020091
vt 0.292228 0.011878
vt 0.338160 0.035227
vt 0.361597 0.031729
vt 0.348948 0.019081
vt 0.361597 0.076814
vt 0.365094 0.008293
vt 0.245129 0.085488
vt 0.228224 0.075882
vt 0.238843 0.091774
vt 0.396338 0.024819
vt 0.315045 0.054815
vt 0.322576 0.074613
vt 0.326514 0.054815
vt 0.165903 0.086627
vt 0.234518 0.054815
vt 0.303252 0.026345
vt 0.322576 0.035018
vt 0.311362 0.018235
vt 0.274781 0.095079
vt 0.254984 0.102610
vt 0.186558 0.036762
vt 0.195113 0.057417
vt 0.192890 0.068595
vt 0.259373 0.092014
vt 0.413592 0.042072
vt 0.413592 0.066471
vt 0.367496 0.043926
vt 0.357297 0.050740
vt 0.350483 0.060939
vt 0.348090 0.072969
vt 0.350483 0.084998
vt 0.357297 0.095197
vt 0.367496 0.102011
vt 0.391555 0.102011
vt 0.401754 0.095197
vt 0.408568 0.084998
vt 0.408568 0.060939
vt 0.401754 0.050740
vt 0.391555 0.043926
vt 0.258137 0.020091
vt 0.310526 0.072480
vt 0.288826 0.094180
vt 0.310526 0.041791
vt 0.258137 0.094180
vt 0.236437 0.041791
vt 0.237583 0.070224
vt 0.161872 0.091208
vt 0.146938 0.088238
vt 0.125819 0.067119
vt 0.122849 0.052185
vt 0.125819 0.037252
vt 0.134278 0.024592
vt 0.161872 0.013162
vt 0.176805 0.016132
vt 0.189465 0.024592
vt 0.197925 0.037252
vt 0.189465 0.079779
vt 0.354686 0.066471
vt 0.354686 0.042072
vt 0.371939 0.024819
vt 0.236437 0.072480
vt 0.311980 0.070223
vt 0.311980 0.039407
vt 0.192890 0.068595
s 1
usemtl material
f 8/1/1 115/2/2 40/3/1
f 89/4/3 43/5/4 116/6/3
f 43/5/4 91/7/5 117/8/5
f 91/7/5 118/9/6 117/8/5
f 118/9/6 93/10/7 120/11/7
f 120/11/7 94/12/8 119/13/8
f 87/14/9 83/15/9 15/16/9
f 106/17/10 142/18/11 143/19/10
f 147/20/12 99/21/13 150/22/13
f 152/23/14 125/24/15 129/25/15
f 105/26/16 134/27/17 133/28/16
f 125/24/15 130/29/18 129/25/15
f 142/18/11 102/30/19 62/31/19
f 99/21/13 152/23/14 150/22/13
f 25/32/20 46/33/21 26/34/21
f 103/35/22 123/36/23 122/37/22
f 80/38/24 128/39/25 110/40/24
f 119/13/8 79/41/26 109/42/26
f 22/43/27 33/44/28 27/45/28
f 158/46/29 56/47/30 140/47/30
f 74/48/31 75/49/32 153/49/32
f 42/50/33 31/51/34 18/52/33
f 155/53/35 51/54/36 156/54/36
f 26/34/21 48/55/37 121/56/37
f 145/57/38 68/58/39 144/58/39
f 113/59/40 30/60/41 29/61/40
f 139/62/42 60/63/43 61/63/43
f 32/64/44 45/65/20 25/32/20
f 121/56/37 47/66/27 22/43/27
f 156/54/36 127/67/45 157/67/45
f 39/68/41 23/69/46 30/60/41
f 72/70/47 76/71/47 138/72/47
f 63/73/48 64/74/49 65/74/49
f 95/75/50 147/20/12 146/76/50
f 134/27/17 95/75/50 146/76/50
f 111/77/51 4/78/52 112/79/52
f 101/80/53 133/28/16 135/81/53
f 102/30/19 135/81/53 62/31/19
f 132/82/54 6/83/55 38/84/55
f 81/85/25 111/77/51 128/39/25
f 123/36/23 106/17/10 143/19/10
f 114/86/56 8/1/1 40/3/1
f 97/87/57 52/88/58 126/89/57
f 88/90/2 116/6/3 115/2/2
f 130/29/18 97/87/57 126/89/57
f 4/78/52 132/82/54 112/79/52
f 36/91/59 17/92/60 20/93/59
f 52/88/58 103/35/22 122/37/22
f 6/83/55 114/86/56 38/84/55
f 153/49/32 77/94/61 154/94/61
f 31/51/34 44/95/44 32/64/44
f 34/96/62 19/97/63 28/98/62
f 158/46/29 127/67/45 54/46/29
f 17/92/60 113/59/40 29/61/40
f 139/62/42 56/47/30 58/62/42
f 19/97/63 36/91/59 20/93/59
f 61/63/43 141/73/48 63/73/48
f 124/99/46 24/100/64 23/69/46
f 65/74/49 66/101/38 145/57/38
f 33/44/28 28/98/62 27/45/28
f 144/58/39 70/102/65 149/102/65
f 79/41/26 110/40/24 109/42/26
f 74/48/31 71/103/66 73/48/31
f 154/94/61 49/53/35 155/53/35
f 41/104/64 18/52/33 24/100/64
f 8/1/1 88/90/2 115/2/2
f 89/4/3 90/105/4 43/5/4
f 43/5/4 90/105/4 91/7/5
f 91/7/5 92/106/6 118/9/6
f 118/9/6 92/106/6 93/10/7
f 120/11/7 93/10/7 94/12/8
f 15/16/9 16/107/9 14/108/9
f 14/108/9 13/109/9 15/16/9
f 13/109/9 12/110/9 15/16/9
f 12/110/9 11/111/9 87/14/9
f 11/111/9 10/112/9 87/14/9
f 10/112/9 9/113/9 87/14/9
f 87/14/9 7/114/9 85/115/9
f 85/115/9 5/116/9 87/14/9
f 5/116/9 83/15/9 87/14/9
f 83/15/9 3/117/9 2/118/9
f 2/118/9 1/119/9 15/16/9
f 83/15/9 2/118/9 15/16/9
f 15/16/9 12/110/9 87/14/9
f 106/17/10 108/120/11 142/18/11
f 147/20/12 100/121/12 99/21/13
f 152/23/14 21/122/14 125/24/15
f 105/26/16 96/123/17 134/27/17
f 125/24/15 98/124/18 130/29/18
f 142/18/11 108/120/11 102/30/19
f 99/21/13 21/122/14 152/23/14
f 25/32/20 45/65/20 46/33/21
f 103/35/22 107/125/23 123/36/23
f 80/38/24 81/85/25 128/39/25
f 119/13/8 94/12/8 79/41/26
f 22/43/27 47/66/27 33/44/28
f 158/46/29 54/46/29 56/47/30
f 74/48/31 73/48/31 75/49/32
f 42/50/33 131/126/34 31/51/34
f 155/53/35 49/53/35 51/54/36
f 26/34/21 46/33/21 48/55/37
f 145/57/38 66/101/38 68/58/39
f 113/59/40 39/68/41 30/60/41
f 139/62/42 58/62/42 60/63/43
f 32/64/44 44/95/44 45/65/20
f 121/56/37 48/55/37 47/66/27
f 156/54/36 51/54/36 127/67/45
f 149/102/65 70/102/65 71/103/67
f 39/68/41 124/99/46 23/69/46
f 76/71/47 78/127/47 50/128/47
f 53/129/47 55/130/47 57/131/47
f 57/131/47 59/132/47 138/72/47
f 138/72/47 137/133/47 136/134/47
f 136/134/47 67/135/47 69/136/47
f 72/70/47 151/137/47 76/71/47
f 76/71/47 50/128/47 53/129/47
f 53/129/47 57/131/47 76/71/47
f 57/131/47 138/72/47 76/71/47
f 138/72/47 136/134/47 69/136/47
f 69/136/47 72/70/47 138/72/47
f 63/73/48 141/73/48 64/74/49
f 95/75/50 100/121/12 147/20/12
f 134/27/17 96/123/17 95/75/50
f 111/77/51 82/138/51 4/78/52
f 101/80/53 105/26/16 133/28/16
f 102/30/19 101/80/53 135/81/53
f 132/82/54 84/139/54 6/83/55
f 81/85/25 82/138/51 111/77/51
f 123/36/23 107/125/23 106/17/10
f 114/86/56 86/140/56 8/1/1
f 97/87/57 104/141/58 52/88/58
f 88/90/2 89/4/3 116/6/3
f 130/29/18 98/124/18 97/87/57
f 4/78/52 84/139/54 132/82/54
f 36/91/59 37/142/60 17/92/60
f 52/88/58 104/141/58 103/35/22
f 6/83/55 86/140/56 114/86/56
f 153/49/32 75/49/32 77/94/61
f 31/51/34 131/126/34 44/95/44
f 34/96/62 35/143/63 19/97/63
f 158/46/29 157/67/45 127/67/45
f 17/92/60 37/142/60 113/59/40
f 139/62/42 140/47/30 56/47/30
f 19/97/63 35/143/63 36/91/59
f 61/63/43 60/63/43 141/73/48
f 124/99/46 41/104/64 24/100/64
f 65/74/49 64/74/49 66/101/38
f 33/44/28 34/96/62 28/98/62
f 144/58/39 68/58/39 70/102/65
f 79/41/26 80/38/24 110/40/24
f 74/48/31 148/144/66 71/103/66
f 154/94/61 77/94/61 49/53/35
f 41/104/64 42/50/33 18/52/33
o FRW.004
v 0.115680 0.298481 0.123635
v 0.115680 0.228448 0.228448
v 0.115680 0.123635 0.298482
v 0.115680 -0.123635 -0.298481
v 0.115680 -0.000000 -0.323074
v -0.107703 0.123635 -0.298481
v 0.115680 0.123635 -0.298481
v 0.115680 0.123635 -0.298481
v 0.115680 -0.000000 -0.323074
vn -0.0000 0.0001 -1.0000
vn -0.0000 0.3826 -0.9239
vn -0.0001 0.3826 -0.9239
vn 1.0000 -0.0000 -0.0000
vt 0.195113 0.057417
vt 0.192890 0.068595
vt 0.192890 0.068595
vt 0.146938 0.088238
vt 0.134278 0.079779
vt 0.125819 0.067119
vt 0.197925 0.037252
vt 0.200895 0.052185
vt 0.197925 0.067119
s 1
usemtl material
f 167/145/68 164/146/69 166/147/70
f 159/148/71 160/149/71 161/150/71
f 162/151/71 163/152/71 165/153/71
