# Blender 5.1.0
# www.blender.org
mtllib P5-12.mtl
g Body.002_Body.002
v -0.545095 -0.029613 -0.051284
v -0.288990 -0.025272 -0.132694
v -0.414064 -0.209674 -0.669395
v -0.572996 -0.097513 -0.244033
v -0.631720 -0.063265 -0.086620
v -0.369092 -0.275589 -0.794902
v -0.189545 -0.347371 -0.929628
v -0.281184 -0.083074 -0.326425
v -0.236042 -0.207959 -0.728015
v -0.212061 -0.275141 -0.857926
v -0.264858 -0.383439 -0.951094
v -0.186822 -0.383439 -0.957240
v -0.507028 -0.017421 0.055041
v -0.486479 -0.154722 -0.475821
v -0.268628 -0.135728 -0.505237
v -0.012260 -0.347371 -0.936020
v -0.012260 -0.022439 -0.155978
v 0.520576 -0.029613 -0.051284
v 0.264471 -0.025272 -0.132694
v -0.012260 -0.275141 -0.880204
v -0.012260 -0.207959 -0.754638
v 0.389545 -0.209674 -0.669395
v 0.548477 -0.097513 -0.244033
v 0.607201 -0.063265 -0.086620
v -0.012260 -0.135728 -0.521458
v -0.012260 -0.083272 -0.341274
v 0.344573 -0.275589 -0.794902
v 0.165025 -0.347371 -0.929628
v 0.256665 -0.083074 -0.326425
v 0.211523 -0.207959 -0.728015
v 0.187542 -0.275141 -0.857926
v 0.240338 -0.383439 -0.951094
v 0.162303 -0.383439 -0.957240
v -0.012260 -0.383439 -0.963944
v 0.482509 -0.017421 0.055041
v 0.461959 -0.154722 -0.475821
v 0.244109 -0.135728 -0.505237
v -0.189545 -0.347371 -0.929628
v -0.012260 -0.347371 -0.936020
v -0.318491 -0.393496 -0.947519
v -0.288990 -0.025272 -0.132694
v -0.012260 -0.022439 -0.155978
v -0.686505 -0.034706 0.094747
v -0.686505 -0.034706 0.094747
v -0.545095 -0.029613 -0.051284
v -0.322161 -0.347371 -0.921452
v -0.322161 -0.347371 -0.921452
v -0.186822 -0.414637 -0.965620
v -0.012260 -0.414637 -0.972324
v -0.300302 -0.414637 -0.954939
v -0.253245 -0.414637 -0.959796
v -0.292553 -0.018898 -0.001797
v -0.012260 -0.017310 -0.014211
v -0.625224 -0.010439 0.116446
v -0.649437 -0.001479 0.142435
v 0.165025 -0.347371 -0.929628
v 0.293971 -0.393496 -0.947519
v 0.264471 -0.025272 -0.132694
v 0.661985 -0.034706 0.094747
v 0.661985 -0.034706 0.094747
v 0.520576 -0.029613 -0.051284
v 0.297641 -0.347371 -0.921452
v 0.297641 -0.347371 -0.921452
v 0.162303 -0.414637 -0.965620
v 0.275783 -0.414637 -0.954939
v 0.228726 -0.414637 -0.959796
v 0.268033 -0.018898 -0.001797
v 0.600704 -0.010439 0.116446
v 0.624918 -0.001479 0.142435
vn -0.1107 0.8031 -0.5855
vn -0.0000 0.9191 -0.3939
vn -0.0000 0.7767 -0.6298
vn -0.1753 0.8293 -0.5306
vn -0.1006 0.9095 -0.4034
vn -0.0976 0.7087 -0.6988
vn -0.0000 0.6567 -0.7541
vn -0.1230 0.9471 -0.2963
vn -0.0731 0.9538 -0.2913
vn -0.0727 0.9518 -0.2979
vn -0.0000 0.9570 -0.2901
vn -0.1525 0.7735 -0.6152
vn -0.0000 0.9542 -0.2992
vn -0.0805 0.9503 -0.3006
vn -0.1421 0.9449 -0.2950
vn -0.2044 0.9394 -0.2751
vn -0.2548 0.9308 -0.2620
vn -0.2700 0.9353 -0.2288
vn -0.1771 0.2692 -0.9467
vn -0.1346 0.5012 -0.8548
vn -0.0877 0.4195 -0.9035
vn -0.0000 0.4411 -0.8974
vn -0.0583 0.2544 -0.9653
vn -0.0510 0.4350 -0.8990
vn -0.1662 0.1600 -0.9730
vn -0.0894 0.2449 -0.9654
vn -0.0428 0.6004 -0.7986
vn -0.0000 0.6093 -0.7929
vn -0.0179 0.9983 -0.0557
vn -0.0000 0.9991 -0.0421
vn -0.0000 0.9991 -0.0422
vn -0.0201 0.9980 -0.0598
vn -0.0722 0.9905 -0.1169
vn -0.0813 0.9887 -0.1256
vn -0.1512 0.9467 -0.2843
vn -0.1612 0.9380 -0.3070
vn -0.1991 0.8660 -0.4586
vn -0.0000 0.9561 -0.2930
vn -0.1405 0.9169 -0.3735
vn 0.1107 0.8032 -0.5854
vn 0.1006 0.9095 -0.4034
vn 0.1753 0.8293 -0.5306
vn 0.0976 0.7087 -0.6988
vn 0.1231 0.9471 -0.2963
vn 0.0731 0.9538 -0.2913
vn 0.1421 0.9449 -0.2948
vn 0.0727 0.9518 -0.2979
vn 0.1527 0.7736 -0.6150
vn 0.0805 0.9503 -0.3007
vn 0.2044 0.9394 -0.2751
vn 0.2548 0.9308 -0.2620
vn 0.2700 0.9353 -0.2288
vn 0.0583 0.2545 -0.9653
vn 0.0510 0.4350 -0.8990
vn 0.1662 0.1600 -0.9730
vn 0.0877 0.4195 -0.9035
vn 0.1770 0.2692 -0.9467
vn 0.0894 0.2449 -0.9654
vn 0.0428 0.6004 -0.7986
vn 0.0179 0.9983 -0.0557
vn 0.0722 0.9905 -0.1169
vn 0.0201 0.9980 -0.0598
vn 0.0813 0.9887 -0.1256
vn 0.1512 0.9467 -0.2843
vn 0.1991 0.8660 -0.4586
vn 0.1612 0.9380 -0.3070
vn 0.1405 0.9169 -0.3735
vn -0.0000 0.2594 -0.9658
vn 0.1346 0.5012 -0.8548
vt 0.202139 0.304691
vt 0.108851 0.398164
vt 0.086838 0.357065
vt 0.300736 0.278429
vt 0.238283 0.340051
vt 0.177016 0.287948
vt 0.077052 0.338796
vt 0.422119 0.347812
vt 0.333854 0.458014
vt 0.295506 0.403237
vt 0.181317 0.533459
vt 0.252384 0.251023
vt 0.213801 0.594107
vt 0.372169 0.519092
vt 0.510988 0.397841
vt 0.529224 0.469260
vt 0.571322 0.431829
vt 0.633662 0.474831
vt 0.652174 0.315349
vt 0.738945 0.459644
vt 0.561815 0.405339
vt 0.054703 0.676955
vt 0.351445 0.388982
vt 0.405151 0.489250
vt 0.579266 0.266958
vt 0.484795 0.317557
vt 0.290052 0.319442
vt 0.281019 0.324711
vt 0.273939 0.319213
vt 0.311568 0.319411
vt 0.290510 0.324942
vt 0.265143 0.308666
vt 0.249350 0.315428
vt 0.249350 0.307337
vt 0.265346 0.316136
vt 0.279759 0.313312
vt 0.277587 0.319380
vt 0.284332 0.322884
vt 0.287829 0.321646
vt 0.285714 0.324368
vt 0.149730 0.474486
vt 0.347809 0.306080
vt 0.311697 0.324942
vt 0.000998 0.576686
s 1
g off
g Body.002_material
usemtl material
f 10/1/1 21/2/2 20/3/3
f 6/4/4 9/5/5 10/1/1
f 38/6/6 20/3/3 39/7/7
f 14/8/8 8/9/9 15/10/10
f 26/11/11 15/10/10 8/9/9
f 46/12/12 10/1/1 38/6/6
f 42/13/13 8/9/9 41/14/14
f 41/14/14 4/15/15 45/16/16
f 4/15/15 5/17/17 45/16/16
f 45/16/16 5/17/17 43/18/18
s 2
f 40/19/19 47/20/20 11/21/21
f 34/22/22 48/23/23 12/24/24
f 11/21/21 50/25/25 40/19/19
f 12/24/24 51/26/26 11/21/21
f 7/27/27 11/28/21 47/29/20
f 16/30/28 12/31/24 7/27/27
s 3
f 2/32/29 53/33/30 17/34/31
f 52/35/32 1/36/33 13/37/34
f 54/38/35 1/36/33 44/39/36
f 54/38/35 44/39/36 55/40/37
s 1
f 9/5/5 25/41/38 21/2/2
f 15/10/10 3/42/39 14/8/8
f 31/1/40 21/2/2 30/5/41
f 30/5/41 27/4/42 31/1/40
f 56/6/43 20/3/3 31/1/40
f 36/8/44 29/9/45 23/15/46
f 37/10/47 26/11/11 29/9/45
f 62/12/48 31/1/40 27/4/42
f 42/13/13 29/9/45 26/11/11
f 58/14/49 23/15/46 29/9/45
f 23/15/46 61/16/50 24/17/51
f 61/16/50 59/18/52 24/17/51
s 2
f 64/23/53 34/22/22 33/24/54
f 65/25/55 32/21/56 57/19/57
f 66/26/58 33/24/54 32/21/56
f 28/27/59 32/28/56 33/31/54
f 16/30/28 33/31/54 34/43/22
s 3
f 53/33/30 19/32/60 17/34/31
f 18/36/61 67/35/62 35/37/63
f 68/38/64 18/36/61 35/37/63
f 68/38/64 69/40/65 60/39/66
s 1
f 30/5/41 25/41/38 37/10/47
f 22/42/67 37/10/47 36/8/44
f 10/1/1 9/5/5 21/2/2
f 6/4/4 3/42/39 9/5/5
f 38/6/6 10/1/1 20/3/3
f 14/8/8 4/15/15 8/9/9
f 26/11/11 25/41/38 15/10/10
f 46/12/12 6/4/4 10/1/1
f 42/13/13 26/11/11 8/9/9
f 41/14/14 8/9/9 4/15/15
s 2
f 34/22/22 49/44/68 48/23/23
f 11/21/21 51/26/26 50/25/25
f 12/24/24 48/23/23 51/26/26
f 7/27/27 12/31/24 11/28/21
f 16/30/28 34/43/22 12/31/24
s 3
f 2/32/29 52/35/32 53/33/30
f 52/35/32 2/32/29 1/36/33
f 54/38/35 13/37/34 1/36/33
s 1
f 9/5/5 15/10/10 25/41/38
f 15/10/10 9/5/5 3/42/39
f 31/1/40 20/3/3 21/2/2
f 30/5/41 22/42/67 27/4/42
f 56/6/43 39/7/7 20/3/3
f 36/8/44 37/10/47 29/9/45
f 37/10/47 25/41/38 26/11/11
f 62/12/48 56/6/43 31/1/40
f 42/13/13 58/14/49 29/9/45
f 58/14/49 61/16/50 23/15/46
s 2
f 57/19/57 32/21/56 63/20/69
f 64/23/53 49/44/68 34/22/22
f 65/25/55 66/26/58 32/21/56
f 66/26/58 64/23/53 33/24/54
f 28/27/59 63/29/69 32/28/56
f 16/30/28 28/27/59 33/31/54
s 3
f 53/33/30 67/35/62 19/32/60
f 18/36/61 19/32/60 67/35/62
f 68/38/64 60/39/66 18/36/61
s 1
f 30/5/41 21/2/2 25/41/38
f 22/42/67 30/5/41 37/10/47
