# Blender 5.1.0
# www.blender.org
mtllib Dado_animales_texturizado.mtl
g Cube_Mesh
v -1.000000 1.000000 1.000000
v -1.000000 -1.000000 1.000000
v -1.000000 1.000000 -1.000000
v -1.000000 -1.000000 -1.000000
v 1.000000 1.000000 1.000000
v 1.000000 -1.000000 1.000000
v 1.000000 1.000000 -1.000000
v 1.000000 -1.000000 -1.000000
vn -0.0000 1.0000 -0.0000
vn -0.0000 -0.0000 -1.0000
vn 1.0000 -0.0000 -0.0000
vn -0.0000 -1.0000 -0.0000
vn -1.0000 -0.0000 -0.0000
vn -0.0000 -0.0000 1.0000
vt 0.508201 0.994253
vt 0.741799 0.673716
vt 0.741799 0.994253
vt 0.501959 0.660291
vt 0.251948 0.335803
vt 0.501951 0.336914
vt 0.748690 0.659877
vt 0.505216 0.340123
vt 0.748690 0.340123
vt 0.507262 0.327290
vt 0.742738 0.008647
vt 0.741814 0.328552
vt 0.989561 0.654418
vt 0.756533 0.345582
vt 0.990746 0.345728
vt 0.243933 0.660238
vt 0.009973 0.343669
vt 0.242412 0.343321
vt 0.508201 0.673716
vt 0.251955 0.659180
vt 0.505216 0.659877
vt 0.508186 0.007386
vt 0.755348 0.654272
vt 0.011494 0.660585
s 0
g off
g Cube_Material
usemtl Material
f 5/1/1 3/2/1 1/3/1
f 3/4/2 8/5/2 4/6/2
f 7/7/3 6/8/3 8/9/3
f 2/10/4 8/11/4 6/12/4
f 1/13/5 4/14/5 2/15/5
f 5/16/6 2/17/6 6/18/6
f 5/1/1 7/19/1 3/2/1
f 3/4/2 7/20/2 8/5/2
f 7/7/3 5/21/3 6/8/3
f 2/10/4 4/22/4 8/11/4
f 1/13/5 3/23/5 4/14/5
f 5/16/6 1/24/6 2/17/6
