# Blender 5.1.0
# www.blender.org
mtllib P6-8.mtl
g FRW.003_FRW.003
v -0.122258 0.121805 0.051248
v -0.121981 0.093225 0.094019
v -0.121795 0.050453 0.122598
v -0.121730 0.000000 0.132634
v -0.121795 -0.050453 0.122598
v -0.121981 -0.093226 0.094019
v -0.122258 -0.121805 0.051248
v -0.122585 -0.131841 0.000796
v -0.122913 -0.121805 -0.049657
v -0.123190 -0.093226 -0.092428
v -0.123376 -0.050453 -0.121007
v -0.123441 -0.000000 -0.131042
v -0.123376 0.050453 -0.121007
v -0.123190 0.093225 -0.092428
v -0.122585 0.131841 0.000796
v -0.122913 0.121805 -0.049657
v -0.121779 -0.101199 0.245110
v -0.124578 -0.186991 -0.186186
v -0.121779 0.101198 0.245110
v -0.121649 0.000000 0.265239
v -0.124021 0.244315 -0.100396
v -0.123365 0.264444 0.000801
v -0.123365 -0.264444 0.000801
v -0.124021 -0.244315 -0.100396
v -0.124950 0.101198 -0.243509
v -0.124578 0.186990 -0.186186
v -0.122708 0.244315 0.101997
v -0.122151 0.186990 0.187787
v -0.122151 -0.186991 0.187787
v -0.122708 -0.244315 0.101997
v -0.124950 -0.101199 -0.243509
v -0.125080 -0.000000 -0.263638
v -0.080601 0.190148 0.079287
v -0.080168 0.145533 0.146057
v -0.079878 0.078762 0.190671
v -0.079777 0.000000 0.206337
v -0.079878 -0.078762 0.190671
v -0.080168 -0.145533 0.146057
v -0.080601 -0.190148 0.079287
v -0.081112 -0.205815 0.000527
v -0.081623 -0.190148 -0.078234
v -0.082056 -0.145533 -0.145003
v -0.082346 -0.078762 -0.189617
v -0.082447 -0.000000 -0.205284
v -0.082346 0.078762 -0.189617
v -0.082056 0.145533 -0.145003
v -0.081112 0.205815 0.000527
v -0.081623 0.190148 -0.078234
v -0.106899 0.298481 0.124331
v 0.116480 0.298481 0.122882
v -0.106219 0.228448 0.229142
v -0.105764 0.123635 0.299174
v 0.117614 0.123635 0.297725
v -0.105605 0.000000 0.323766
v 0.117774 0.000000 0.322317
v -0.105764 -0.123635 0.299174
v 0.117614 -0.123635 0.297725
v -0.106219 -0.228448 0.229142
v 0.117160 -0.228448 0.227693
v -0.106899 -0.298481 0.124332
v 0.116480 -0.298481 0.122882
v -0.107701 -0.323074 0.000699
v 0.115677 -0.323074 -0.000750
v -0.108503 -0.298481 -0.122933
v 0.114875 -0.298481 -0.124383
v -0.109183 -0.228448 -0.227744
v 0.114195 -0.228448 -0.229193
v -0.109638 -0.123635 -0.297776
v 0.113741 -0.123635 -0.299225
v -0.109797 -0.000000 -0.322368
v -0.109638 0.123635 -0.297776
v 0.113741 0.123635 -0.299225
v -0.109183 0.228448 -0.227744
v 0.114195 0.228448 -0.229193
v -0.108503 0.298481 -0.122933
v 0.114875 0.298481 -0.124383
v -0.107701 0.323074 0.000699
v 0.115677 0.323074 -0.000750
v -0.122585 0.131841 0.000796
v -0.122258 0.121805 0.051248
v -0.121981 0.093225 0.094019
v -0.121795 0.050453 0.122598
v -0.121730 0.000000 0.132634
v -0.121795 -0.050453 0.122598
v -0.121981 -0.093226 0.094019
v -0.122258 -0.121805 0.051248
v -0.122585 -0.131841 0.000796
v -0.122913 -0.121805 -0.049657
v -0.123190 -0.093226 -0.092428
v -0.123376 -0.050453 -0.121007
v -0.123441 -0.000000 -0.131042
v -0.123376 0.050453 -0.121007
v -0.123190 0.093225 -0.092428
v -0.122913 0.121805 -0.049657
v -0.125080 -0.000000 -0.263638
v -0.124950 -0.101199 -0.243509
v -0.122151 0.186990 0.187787
v -0.122708 0.244315 0.101997
v -0.124578 0.186990 -0.186186
v -0.124950 0.101198 -0.243509
v -0.124021 -0.244315 -0.100396
v -0.123365 -0.264444 0.000801
v -0.121649 0.000000 0.265239
v -0.121779 0.101198 0.245110
v -0.124578 -0.186991 -0.186186
v -0.122151 -0.186991 0.187787
v -0.121779 -0.101199 0.245110
v -0.122708 -0.244315 0.101997
v -0.081112 0.205815 0.000527
v -0.080601 0.190148 0.079287
v -0.079878 0.078762 0.190671
v -0.079777 0.000000 0.206337
v -0.080168 -0.145533 0.146057
v -0.080601 -0.190148 0.079287
v -0.081623 -0.190148 -0.078234
v -0.082056 -0.145533 -0.145003
v -0.082447 -0.000000 -0.205284
v -0.082346 0.078762 -0.189617
v -0.081623 0.190148 -0.078234
v -0.082056 0.145533 -0.145003
v -0.124021 0.244315 -0.100396
v -0.105605 0.000000 0.323766
v -0.105764 -0.123635 0.299174
v -0.081112 -0.205815 0.000527
v -0.123365 0.264444 0.000801
v -0.106219 0.228448 0.229142
v -0.105764 0.123635 0.299174
v -0.080168 0.145533 0.146057
v -0.107701 0.323074 0.000699
v -0.106899 0.298481 0.124331
v -0.082346 -0.078762 -0.189617
v -0.079878 -0.078762 0.190671
v -0.109183 -0.228448 -0.227744
v -0.109638 -0.123635 -0.297776
v -0.108503 -0.298481 -0.122933
v 0.114875 -0.298481 -0.124383
v 0.115677 -0.323074 -0.000750
v 0.116480 -0.298481 0.122882
v 0.117160 -0.228448 0.227693
v 0.117614 -0.123635 0.297725
v -0.107701 -0.323074 0.000699
v -0.106899 -0.298481 0.124332
v -0.106219 -0.228448 0.229142
v 0.113741 -0.123635 -0.299225
v 0.114195 -0.228448 -0.229193
v -0.109797 -0.000000 -0.322368
v -0.109638 0.123635 -0.297776
v 0.113741 0.123635 -0.299225
v 0.113581 -0.000000 -0.323818
v -0.109183 0.228448 -0.227744
v 0.114195 0.228448 -0.229193
v -0.108503 0.298481 -0.122933
v 0.114875 0.298481 -0.124383
v 0.115677 0.323074 -0.000750
v 0.116480 0.298481 0.122882
v 0.117160 0.228448 0.227693
v 0.117614 0.123635 0.297725
v 0.117774 0.000000 0.322317
vn -0.8722 -0.4890 0.0057
vn -0.8735 -0.4518 -0.1815
vn -0.8745 -0.3458 -0.3401
vn -0.8752 -0.1871 -0.4461
vn -0.8754 -0.0000 -0.4834
vn -0.8752 0.1872 -0.4461
vn -0.8745 0.3458 -0.3401
vn -0.8735 0.4518 -0.1815
vn -1.0000 -0.0000 0.0065
vn -0.9649 -0.1825 0.1888
vn -0.9655 -0.2385 0.1050
vn -0.9676 0.0988 -0.2322
vn -0.9673 0.1825 -0.1762
vn -0.9667 0.2385 -0.0925
vn -0.9661 0.2581 0.0063
vn -0.9673 -0.1825 -0.1762
vn -0.9676 -0.0988 -0.2322
vn -0.9655 0.2385 0.1050
vn -0.9661 -0.2581 0.0063
vn -0.8078 -0.2237 0.5454
vn -0.8086 -0.4134 0.4187
vn -0.9644 -0.0000 0.2644
vn -0.9645 -0.0988 0.2447
vn -0.8710 0.4518 0.1928
vn -0.8700 0.3458 0.3515
vn -0.8722 0.4890 0.0057
vn -0.8112 -0.5847 0.0053
vn -0.8127 -0.5402 -0.2185
vn 0.0065 -0.0000 1.0000
vn 0.0060 -0.3827 0.9239
vn -0.0046 0.7071 -0.7071
vn -0.0025 0.9239 -0.3827
vn -0.8086 0.4134 0.4187
vn -0.8078 0.2237 0.5454
vn 0.0025 0.9239 0.3827
vn 0.0046 0.7071 0.7071
vn -0.8098 -0.5402 0.2290
vn -0.0046 -0.7071 -0.7071
vn -0.0060 -0.3827 -0.9239
vn -0.8139 0.4134 -0.4081
vn -0.8127 0.5402 -0.2185
vn 0.0046 -0.7071 0.7071
vn 0.0025 -0.9239 0.3827
vn -0.8075 -0.0000 0.5899
vn -0.8077 -0.2237 0.5454
vn 0.0060 0.3827 0.9239
vn -0.8112 0.5847 0.0053
vn 1.0000 -0.0000 -0.0065
vn -0.0000 -1.0000 -0.0000
vn -0.0025 -0.9239 -0.3827
vn -0.9678 -0.0000 -0.2518
vn -0.8693 0.1871 0.4575
vn -0.8691 -0.0000 0.4947
vn -0.9667 -0.2385 -0.0925
vn -0.8693 -0.1871 0.4575
vn -0.8700 -0.3458 0.3515
vn -0.8710 -0.4518 0.1928
vn -0.9649 0.1825 0.1888
vn -0.9645 0.0988 0.2447
vn -0.8150 -0.0000 -0.5794
vn -0.8148 0.2237 -0.5349
vn -0.0000 1.0000 -0.0000
vn -0.8139 -0.4134 -0.4082
vn -0.8148 -0.2237 -0.5349
vn -0.8098 0.5402 0.2290
vn -0.0065 -0.0000 -1.0000
vn -0.0060 0.3829 -0.9238
vn -1.0000 -0.0001 0.0065
vn -1.0000 0.0001 0.0065
vn -0.0060 0.3826 -0.9239
vt 0.510299 0.118479
vt 0.525359 0.097058
vt 0.510299 0.091302
vt 0.528124 0.132665
vt 0.546656 0.137980
vt 0.538125 0.113448
vt 0.535507 0.166914
vt 0.549652 0.166914
vt 0.546656 0.195850
vt 0.528124 0.201165
vt 0.538125 0.220381
vt 0.519946 0.211663
vt 0.525359 0.236772
vt 0.506651 0.243083
vt 0.531508 0.195323
vt 0.506651 0.147561
vt 0.474499 0.102886
vt 0.486311 0.063111
vt 0.466770 0.088096
vt 0.565008 0.213702
vt 0.544222 0.236303
vt 0.551952 0.251093
vt 0.532411 0.276078
vt 0.509362 0.263935
vt 0.509362 0.284852
vt 0.544222 0.102886
vt 0.565008 0.125487
vt 0.551952 0.088096
vt 0.486311 0.276078
vt 0.509362 0.075254
vt 0.509362 0.054338
vt 0.452191 0.117556
vt 0.475953 0.097150
vt 0.465980 0.078068
vt 0.460059 0.169596
vt 0.453714 0.125487
vt 0.449129 0.169596
vt 0.500652 0.211663
vt 0.482471 0.220381
vt 0.495239 0.236772
vt 0.510299 0.215351
vt 0.510299 0.242527
vt 0.510959 0.042416
vt 0.529904 0.076614
vt 0.535302 0.051681
vt 0.429337 0.069203
vt 0.430542 0.063144
vt 0.456363 0.080397
vt 0.451227 0.083829
vt 0.475953 0.231123
vt 0.452191 0.210716
vt 0.465981 0.250204
vt 0.439110 0.083829
vt 0.433974 0.080397
vt 0.492014 0.076614
vt 0.486617 0.051681
vt 0.456363 0.058008
vt 0.459795 0.063144
vt 0.545966 0.231123
vt 0.535302 0.276589
vt 0.555938 0.250204
vt 0.433974 0.058008
vt 0.439110 0.054576
vt 0.447349 0.164135
vt 0.465221 0.127883
vt 0.510959 0.069403
vt 0.430542 0.075261
vt 0.529904 0.251658
vt 0.510959 0.285854
vt 0.462524 0.074461
vt 0.451077 0.085907
vt 0.434890 0.046827
vt 0.445169 0.053371
vt 0.451227 0.054576
vt 0.558663 0.169596
vt 0.569593 0.169596
vt 0.473941 0.195850
vt 0.485090 0.166914
vt 0.470945 0.166914
vt 0.528228 0.082435
vt 0.532411 0.063111
vt 0.473941 0.137980
vt 0.492474 0.132665
vt 0.482471 0.113448
vt 0.492474 0.201165
vt 0.495239 0.097058
vt 0.474499 0.236303
vt 0.453714 0.213702
vt 0.466770 0.251093
vt 0.519945 0.122166
vt 0.560466 0.164135
vt 0.569726 0.210716
vt 0.574568 0.164135
vt 0.445169 0.085034
vt 0.461453 0.164135
vt 0.545966 0.097150
vt 0.569726 0.117556
vt 0.555938 0.078068
vt 0.510959 0.258869
vt 0.486617 0.276589
vt 0.461000 0.069203
vt 0.459795 0.075261
vt 0.492014 0.251658
vt 0.533589 0.148380
vt 0.533589 0.185450
vt 0.497138 0.151197
vt 0.489073 0.161549
vt 0.483685 0.177045
vt 0.481793 0.195323
vt 0.483685 0.213599
vt 0.489073 0.229095
vt 0.497138 0.239448
vt 0.516163 0.239448
vt 0.524228 0.229095
vt 0.529616 0.213599
vt 0.529616 0.177045
vt 0.524228 0.161549
vt 0.516163 0.151197
vt 0.490494 0.082435
vt 0.554910 0.205698
vt 0.528228 0.256754
vt 0.554910 0.133492
vt 0.490494 0.256754
vt 0.463812 0.133492
vt 0.465221 0.200390
vt 0.442984 0.087517
vt 0.434890 0.085907
vt 0.423444 0.074461
vt 0.421834 0.066367
vt 0.423444 0.058274
vt 0.428028 0.051412
vt 0.442984 0.045217
vt 0.451077 0.046827
vt 0.457939 0.051412
vt 0.462524 0.058274
vt 0.457939 0.081323
vt 0.487009 0.185450
vt 0.487009 0.148380
vt 0.500652 0.122166
vt 0.463812 0.205698
vt 0.556698 0.200387
vt 0.556698 0.127883
s 1
g off
g FRW.003_material
usemtl material
f 8/1/1 115/2/2 40/3/1
f 89/4/3 43/5/4 116/6/3
f 43/5/4 91/7/5 117/8/5
f 91/7/5 118/9/6 117/8/5
f 118/9/6 93/10/7 120/11/7
f 120/11/7 94/12/8 119/13/8
s 2
f 87/14/9 83/15/9 15/16/9
s 3
f 106/17/10 142/18/11 143/19/10
f 147/20/12 99/21/13 150/22/13
f 152/23/14 125/24/15 129/25/15
f 105/26/16 134/27/17 133/28/16
f 125/24/15 130/29/18 129/25/15
f 142/18/11 102/30/19 62/31/19
f 99/21/13 152/23/14 150/22/13
s 4
f 25/32/20 46/33/21 26/34/21
s 3
f 103/35/22 123/36/23 122/37/22
s 1
f 80/38/24 128/39/25 110/40/24
f 119/13/8 79/41/26 109/42/26
s 4
f 22/43/27 33/44/28 27/45/28
s 5
f 158/46/29 56/47/30 140/47/30
f 74/48/31 75/49/32 153/49/32
s 4
f 42/50/33 31/51/34 18/52/33
s 5
f 155/53/35 51/54/36 156/54/36
s 4
f 26/34/21 48/55/37 121/56/37
s 5
f 145/57/38 68/58/39 144/58/39
s 4
f 113/59/40 30/60/41 29/61/40
s 5
f 139/62/42 60/63/43 61/63/43
s 4
f 32/64/44 45/65/45 25/32/20
f 121/56/37 47/66/27 22/43/27
s 5
f 156/54/36 127/67/46 157/67/46
s 4
f 39/68/41 23/69/47 30/60/41
s 6
f 72/70/48 76/71/48 138/72/48
s 5
f 63/73/49 64/74/50 65/74/50
s 3
f 95/75/51 147/20/12 146/76/51
f 134/27/17 95/75/51 146/76/51
s 1
f 111/77/52 4/78/53 112/79/53
s 3
f 101/80/54 133/28/16 135/81/54
f 102/30/19 135/81/54 62/31/19
s 1
f 132/82/55 6/83/56 38/84/56
f 81/85/25 111/77/52 128/39/25
s 3
f 123/36/23 106/17/10 143/19/10
s 1
f 114/86/57 8/1/1 40/3/1
s 3
f 97/87/58 52/88/59 126/89/58
s 1
f 88/90/2 116/6/3 115/2/2
s 3
f 130/29/18 97/87/58 126/89/58
s 1
f 4/78/53 132/82/55 112/79/53
s 4
f 36/91/60 17/92/61 20/93/60
s 3
f 52/88/59 103/35/22 122/37/22
s 1
f 6/83/56 114/86/57 38/84/56
s 5
f 153/49/32 77/94/62 154/94/62
s 4
f 31/51/34 44/95/44 32/64/44
f 34/96/63 19/97/64 28/98/63
s 5
f 158/46/29 127/67/46 54/46/29
s 4
f 17/92/61 113/59/40 29/61/40
s 5
f 139/62/42 56/47/30 58/62/42
s 4
f 19/97/64 36/91/60 20/93/60
s 5
f 61/63/43 141/73/49 63/73/49
s 4
f 124/99/47 24/100/65 23/69/47
s 5
f 65/74/50 66/57/38 145/57/38
s 4
f 33/44/28 28/98/63 27/45/28
s 5
f 144/58/39 70/101/66 149/101/66
s 1
f 79/41/26 110/40/24 109/42/26
s 5
f 74/48/31 71/102/67 73/48/31
f 154/94/62 49/53/35 155/53/35
s 4
f 41/103/65 18/52/33 24/100/65
s 1
f 8/1/1 88/90/2 115/2/2
f 89/4/3 90/104/4 43/5/4
f 43/5/4 90/104/4 91/7/5
f 91/7/5 92/105/6 118/9/6
f 118/9/6 92/105/6 93/10/7
f 120/11/7 93/10/7 94/12/8
s 2
f 15/16/9 16/106/68 14/107/9
f 14/107/9 13/108/9 15/16/9
f 13/108/9 12/109/9 15/16/9
f 12/109/9 11/110/9 87/14/9
f 11/110/9 10/111/9 87/14/9
f 10/111/9 9/112/69 87/14/9
f 87/14/9 7/113/9 85/114/9
f 85/114/9 5/115/9 87/14/9
f 5/115/9 83/15/9 87/14/9
f 83/15/9 3/116/9 2/117/9
f 2/117/9 1/118/9 15/16/9
f 83/15/9 2/117/9 15/16/9
f 15/16/9 12/109/9 87/14/9
s 3
f 106/17/10 108/119/11 142/18/11
f 147/20/12 100/120/12 99/21/13
f 152/23/14 21/121/14 125/24/15
f 105/26/16 96/122/17 134/27/17
f 125/24/15 98/123/18 130/29/18
f 142/18/11 108/119/11 102/30/19
f 99/21/13 21/121/14 152/23/14
s 4
f 25/32/20 45/65/45 46/33/21
s 3
f 103/35/22 107/124/23 123/36/23
s 1
f 80/38/24 81/85/25 128/39/25
f 119/13/8 94/12/8 79/41/26
s 4
f 22/43/27 47/66/27 33/44/28
s 5
f 158/46/29 54/46/29 56/47/30
f 74/48/31 73/48/31 75/49/32
s 4
f 42/50/33 131/125/34 31/51/34
s 5
f 155/53/35 49/53/35 51/54/36
s 4
f 26/34/21 46/33/21 48/55/37
s 5
f 145/57/38 66/57/38 68/58/39
s 4
f 113/59/40 39/68/41 30/60/41
s 5
f 139/62/42 58/62/42 60/63/43
s 4
f 32/64/44 44/95/44 45/65/45
f 121/56/37 48/55/37 47/66/27
s 5
f 156/54/36 51/54/36 127/67/46
f 149/101/66 70/101/66 71/102/70
s 4
f 39/68/41 124/99/47 23/69/47
s 6
f 76/71/48 78/126/48 50/127/48
f 53/128/48 55/129/48 57/130/48
f 57/130/48 59/131/48 138/72/48
f 138/72/48 137/132/48 136/133/48
f 136/133/48 67/134/48 69/135/48
f 72/70/48 151/136/48 76/71/48
f 76/71/48 50/127/48 53/128/48
f 53/128/48 57/130/48 76/71/48
f 57/130/48 138/72/48 76/71/48
f 138/72/48 136/133/48 69/135/48
f 69/135/48 72/70/48 138/72/48
s 5
f 63/73/49 141/73/49 64/74/50
s 3
f 95/75/51 100/120/12 147/20/12
f 134/27/17 96/122/17 95/75/51
s 1
f 111/77/52 82/137/52 4/78/53
s 3
f 101/80/54 105/26/16 133/28/16
f 102/30/19 101/80/54 135/81/54
s 1
f 132/82/55 84/138/55 6/83/56
f 81/85/25 82/137/52 111/77/52
s 3
f 123/36/23 107/124/23 106/17/10
s 1
f 114/86/57 86/139/57 8/1/1
s 3
f 97/87/58 104/140/59 52/88/59
s 1
f 88/90/2 89/4/3 116/6/3
s 3
f 130/29/18 98/123/18 97/87/58
s 1
f 4/78/53 84/138/55 132/82/55
s 4
f 36/91/60 37/141/61 17/92/61
s 3
f 52/88/59 104/140/59 103/35/22
s 1
f 6/83/56 86/139/57 114/86/57
s 5
f 153/49/32 75/49/32 77/94/62
s 4
f 31/51/34 131/125/34 44/95/44
f 34/96/63 35/142/64 19/97/64
s 5
f 158/46/29 157/67/46 127/67/46
s 4
f 17/92/61 37/141/61 113/59/40
s 5
f 139/62/42 140/47/30 56/47/30
s 4
f 19/97/64 35/142/64 36/91/60
s 5
f 61/63/43 60/63/43 141/73/49
s 4
f 124/99/47 41/103/65 24/100/65
s 5
f 65/74/50 64/74/50 66/57/38
s 4
f 33/44/28 34/96/63 28/98/63
s 5
f 144/58/39 68/58/39 70/101/66
s 1
f 79/41/26 80/38/24 110/40/24
s 5
f 74/48/31 148/102/67 71/102/67
f 154/94/62 77/94/62 49/53/35
s 4
f 41/103/65 42/50/33 18/52/33
g FRW.004_FRW.004
v 0.115680 0.298481 0.123635
v 0.115680 0.228448 0.228448
v 0.115680 0.123635 0.298482
v 0.115680 -0.123635 -0.298481
v 0.115680 -0.000000 -0.323074
v -0.107703 0.123635 -0.298481
v 0.115680 0.123635 -0.298481
v 0.115680 0.123635 -0.298481
v 0.115680 -0.000000 -0.323074
vn -0.0000 0.0001 -1.0000
vn -0.0000 0.3826 -0.9239
vn -0.0001 0.3826 -0.9239
vn 1.0000 -0.0000 -0.0000
vt 0.461000 0.069203
vt 0.459795 0.075261
vt 0.434890 0.085907
vt 0.428028 0.081323
vt 0.423444 0.074461
vt 0.462524 0.058274
vt 0.464134 0.066367
vt 0.462524 0.074461
s 1
g off
g FRW.004_material
usemtl material
f 167/143/71 164/144/72 166/144/73
s 2
f 159/145/74 160/146/74 161/147/74
s 3
f 162/148/74 163/149/74 165/150/74
